<svg width="596" height="842" viewBox="0 0 596 842" fill="none" xmlns="http://www.w3.org/2000/svg">
<g clip-path="url(#clip0_112_23)">
<path d="M626.93 728C623.06 723.39 619.23 718.75 615.32 714.17C611.66 709.89 608.01 705.6 604.21 701.44C599.37 696.15 594.45 690.92 589.42 685.8C585.21 681.52 580.6 677.62 576.49 673.24C570.04 666.35 560.91 664.41 553.07 660.11C548.28 657.48 542.93 655.84 537.78 653.9C536.95 653.59 535.82 654.05 534.83 654.16C535.11 655.03 535.16 656.09 535.7 656.74C539.72 661.53 543.89 666.19 547.91 670.99C549.91 673.38 551.77 675.89 553.48 678.49C554.11 679.45 554.13 680.81 554.42 681.99C553.14 682.05 551.69 682.53 550.61 682.09C545.39 679.98 540.32 677.53 535.12 675.37C526.54 671.8 517.93 668.33 509.29 664.93C508.5 664.62 507.37 665.16 506.4 665.3C506.77 666.15 506.92 667.2 507.53 667.81C512.41 672.65 517.49 677.3 522.28 682.22C525.46 685.49 528.32 689.07 531.2 692.61C531.73 693.26 531.67 694.39 531.88 695.3C530.87 695.45 529.77 695.93 528.87 695.68C526.34 694.97 523.83 694.12 521.43 693.05C515.83 690.55 510.4 687.62 504.71 685.35C496.28 681.98 487.7 679 479.15 675.97C478.39 675.7 477.35 676.25 476.44 676.42C476.9 677.18 477.2 678.11 477.83 678.67C486.92 686.65 496.12 694.53 505.14 702.58C506.99 704.23 508.28 706.52 509.83 708.51L509 709.81C506.19 709.03 503.27 708.51 500.57 707.43C488.06 702.43 475.68 697.08 463.1 692.26C457.86 690.25 452.25 689.21 446.79 687.79C445.99 687.58 445.09 687.73 443.81 688.4C445.23 689.68 446.53 691.14 448.09 692.21C455.51 697.25 463.17 701.96 470.41 707.25C475.56 711.01 480.21 715.46 485.01 719.7C485.84 720.43 486.27 721.6 486.64 723.4C485.24 723.25 483.74 723.36 482.46 722.9C473.96 719.81 465.54 716.49 457.02 713.46C448.52 710.44 440.01 707.42 431.37 704.88C425.05 703.02 418.5 701.9 412.04 700.53C410.75 700.26 409.38 700.38 408.05 700.32C407.93 700.56 407.8 700.81 407.68 701.05C408.49 701.69 409.22 702.46 410.11 702.95C422.87 709.92 435.78 716.63 448.36 723.91C453.25 726.74 457.44 730.82 461.87 734.42C462.7 735.09 463.17 736.19 464.35 737.87C462.29 737.73 461.04 737.87 459.96 737.52C450.7 734.47 441.48 731.28 432.22 728.24C417.03 723.23 401.6 719.12 385.72 716.98C379.92 716.2 374.07 715.8 368.24 715.31C367.08 715.21 365.88 715.52 364.7 715.65C364.65 715.97 364.61 716.28 364.56 716.6C365.65 716.98 366.74 717.37 367.84 717.75C378.79 721.47 389.84 724.94 400.67 728.98C413.91 733.92 426.48 740.24 437.83 748.8C438.06 748.97 438.36 749.12 438.5 749.35C439.1 750.36 439.64 751.41 440.21 752.44C439.01 752.47 437.73 752.8 436.62 752.5C423.64 748.97 410.77 744.96 397.69 741.87C387.58 739.48 377.24 737.94 366.94 736.54C350.74 734.33 334.45 733.95 318.17 735.78C312.89 736.37 307.65 737.29 302.39 738.06C302.41 738.43 302.43 738.8 302.45 739.17C306.4 739.3 310.34 739.52 314.29 739.55C333.3 739.69 352.07 741.88 370.43 746.71C381.72 749.68 392.92 753.11 403.2 758.91C406.9 761 410.64 763 414.3 765.15C415.33 765.75 416.13 766.75 417.04 767.57C416.96 767.86 416.89 768.15 416.81 768.45C415.37 768.36 413.89 768.45 412.49 768.15C400.77 765.65 389.08 762.95 377.33 760.56C360.88 757.22 344.16 756.3 327.47 756.91C315.44 757.35 303.44 759.2 291.5 760.95C277.66 762.97 264.41 767.41 251.31 772.19C245.9 774.16 240.72 776.76 235.38 778.96C233.21 779.85 232.96 781 233.95 783.04C234.93 785.05 235.91 785.48 238.05 784.54C254.8 777.15 272.11 771.61 290.26 768.82C302.85 766.89 315.52 766.13 328.19 766.79C345.58 767.69 362.71 770.46 378.97 777.09C383.46 778.92 387.77 781.2 392.14 783.3C392.45 783.45 392.63 783.85 393.43 784.8C391.43 784.84 390.04 785.05 388.7 784.86C378.77 783.46 368.87 781.68 358.91 780.59C339.23 778.45 319.53 778.42 300.03 782.16C289.15 784.24 278.29 786.74 267.7 789.97C259.61 792.43 251.96 796.33 244.13 799.61C243.71 799.79 243.37 800.15 242.89 800.5C244.11 803.07 245.14 805.6 246.54 807.91C246.87 808.45 248.58 808.59 249.43 808.29C257.34 805.51 265.06 802.08 273.11 799.84C282 797.37 291.12 795.57 300.24 794.16C314.7 791.91 329.26 792.27 343.66 794.72C350.91 795.95 357.97 798.34 365.09 800.3C366.01 800.55 366.75 801.43 367.57 802.02C367.49 802.34 367.41 802.66 367.33 802.98C364.39 802.91 361.43 803.02 358.51 802.76C336.23 800.77 314.04 801.14 292.24 806.55C282.91 808.86 273.83 812.2 264.69 815.23C261.27 816.36 258.01 817.97 254.65 819.3C252.63 820.1 252.64 821.16 253.67 822.9C255.11 825.33 256.5 827.84 257.41 830.49C258.2 832.79 259.07 833.17 261.19 832.1C270.39 827.45 280.18 824.43 290.2 822.23C305.78 818.8 321.48 817.9 337.26 820.89C338.12 821.05 338.9 821.62 340.35 822.28C326.37 824.17 313.11 825.52 300.03 827.85C286.96 830.18 274.44 834.53 262.41 841.13C263.63 842.94 264.85 844.36 265.62 846C266.89 848.74 268.01 851.56 268.93 854.44C269.61 856.55 270.42 856.78 272.53 856.06C280.55 853.33 288.64 850.82 296.77 848.44C298.93 847.81 301.31 847.92 303.59 847.69C303.64 847.95 303.7 848.21 303.75 848.47C300.77 849.49 297.76 850.43 294.82 851.54C288.07 854.09 281.36 856.75 274.6 859.3C272.17 860.22 271.82 861.76 273.45 863.49C277.07 867.34 278.73 871.94 280.06 876.98C281.3 881.68 283.77 885.97 287.98 889.05C289.14 889.9 289.88 892.02 289.92 893.58C290.06 899.19 292.36 903.9 295.92 907.87C297.11 909.19 299.73 909.42 301.76 909.73C303.51 909.99 305.35 909.65 307.15 909.58C307.24 909.83 307.33 910.09 307.41 910.34C306.23 911.26 305.07 912.2 303.86 913.08C301.36 914.9 300.36 917.23 301.34 920.26C301.73 921.47 302.09 922.7 302.61 923.84C305.59 930.32 306.83 931.04 313.69 929.58C325.7 927.02 337.24 928.04 348.1 934C354.89 937.73 360.23 942.99 364.38 949.63C370.91 960.06 372.59 971.27 370.05 983.06C367.93 992.88 362.8 1001.15 355.26 1007.85C354.53 1008.5 353.75 1009.1 353.05 1009.79C351.21 1011.6 348.48 1013 349.13 1016.19C350.03 1020.61 351.96 1024.59 355.75 1027.23C356.71 1027.9 358.39 1027.67 359.72 1027.6C361.15 1027.52 362.56 1027.13 364.87 1026.72C363.86 1028.24 363.4 1029.25 362.67 1030C359.28 1033.52 358.81 1037.53 361.23 1041.56C363.16 1044.77 365.79 1047.56 367.99 1050.63C368.89 1051.89 369.67 1053.32 370.09 1054.79C370.59 1056.56 370.45 1058.49 370.92 1060.27C371.64 1063.03 372.44 1063.21 374.82 1061.63C382.37 1056.61 389.94 1051.63 397.51 1046.64C397.74 1046.49 398.05 1046.47 398.36 1046.38C397.57 1050.11 391.88 1054.94 374.1 1066.94C377.34 1071.6 381.65 1075.81 381.5 1082.78C393.33 1077.14 403.34 1070.44 412.01 1062C420.54 1053.7 428.49 1044.8 437 1036.36C433.35 1048.78 425.5 1058.54 416.71 1067.65C407.9 1076.78 397.68 1084.05 386.57 1090.03C388.59 1094.29 390.55 1098.43 392.51 1102.54C426.21 1086.04 448.94 1058.81 466.91 1026.83C467.27 1027.02 467.63 1027.21 467.98 1027.4C467.96 1028.56 468.12 1029.76 467.89 1030.88C465.53 1042.21 460.58 1052.52 454.32 1062.09C449.59 1069.32 444.25 1076.24 438.49 1082.69C430.62 1091.52 421.6 1099.16 411.5 1105.42C407.61 1107.83 403.62 1110.09 399.64 1112.35C398.34 1113.08 398.02 1113.78 398.83 1115.14C399.93 1116.98 400.98 1118.88 401.75 1120.87C402.4 1122.56 403.29 1122.7 404.65 1121.92C409.13 1119.35 413.89 1117.15 418.02 1114.1C427.1 1107.4 436.07 1100.51 444.7 1093.23C453.76 1085.59 461.11 1076.28 468.06 1066.73C477.45 1053.83 484.83 1039.75 491.61 1025.33C492.7 1023.01 494.21 1020.88 495.52 1018.66C495.97 1018.78 496.41 1018.91 496.86 1019.04C496.42 1022.99 496.28 1027.01 495.47 1030.89C491.44 1050.21 482.72 1067.47 471.54 1083.52C459.94 1100.16 445.53 1114.1 428.87 1125.63C423.51 1129.34 417.79 1132.55 412.05 1135.65C409.16 1137.22 410.75 1138.7 411.42 1140.43C412.25 1142.58 413.53 1142.56 415.33 1141.57C433.29 1131.72 449.85 1119.92 464.44 1105.53C473.89 1096.21 482.57 1086.15 489.72 1074.93C494.74 1067.06 499.67 1059.06 503.79 1050.7C509.08 1039.98 513.5 1028.84 518.33 1017.89C519.46 1015.33 520.74 1012.85 521.95 1010.33C522.29 1010.33 522.63 1010.31 522.97 1010.31C523.29 1011.26 523.96 1012.24 523.88 1013.16C523.29 1019.42 522.72 1025.7 521.77 1031.92C521.07 1036.52 520.25 1041.2 518.68 1045.56C515.03 1055.69 511.4 1065.89 506.82 1075.61C500.23 1089.58 491.7 1102.45 482 1114.51C480.97 1115.79 480.17 1117.24 479.76 1119.13C481.54 1117.62 483.4 1116.19 485.08 1114.58C499.94 1100.32 511.69 1083.74 521.57 1065.73C531.04 1048.47 537.74 1030.1 543.9 1011.49C544.7 1009.08 545.5 1006.66 546.47 1004.31C546.96 1003.13 547.82 1002.11 548.51 1001.02C548.86 1001.07 549.21 1001.12 549.56 1001.17C549.89 1004.28 550.5 1007.4 550.51 1010.51C550.56 1022.16 548.99 1033.64 545.87 1044.85C542.85 1055.7 539.41 1066.44 536.17 1077.23C535.74 1078.68 535.42 1080.16 535.04 1081.63C535.28 1081.77 535.51 1081.9 535.75 1082.04C536.57 1081.18 537.54 1080.41 538.2 1079.43C545.25 1068.96 550.56 1057.6 555.37 1045.96C561.34 1031.54 565.62 1016.61 569.67 1001.58C570.55 998.31 572.05 995.21 573.71 992.13C576.61 995.18 576.47 998.8 576.63 1002.18C577.36 1017.12 575.53 1031.88 573.05 1046.57C572.61 1049.16 572.34 1051.78 572.06 1054.39C571.98 1055.09 572.16 1055.81 572.22 1056.52C572.49 1056.62 572.76 1056.72 573.02 1056.82C574.07 1055.19 575.48 1053.69 576.13 1051.91C580.25 1040.6 584.54 1029.33 588.1 1017.85C591.13 1008.09 593.21 998.04 595.82 988.15C596.33 986.23 597.35 984.45 598.14 982.61C598.55 982.58 598.96 982.54 599.37 982.51C600.02 984.29 600.94 986.02 601.29 987.86C603.86 1001.24 602.99 1014.75 602.62 1028.23C602.55 1030.76 602.75 1033.29 602.82 1035.81C603.25 1035.9 603.67 1035.99 604.1 1036.07C605.02 1034.44 606.3 1032.91 606.8 1031.16C609.88 1020.29 612.88 1009.4 615.71 998.46C617.57 991.29 619.09 984.03 620.78 976.82C620.87 976.44 620.99 976.03 621.22 975.74C621.86 974.92 622.56 974.16 623.24 973.37C623.95 974.22 625.09 974.97 625.3 975.92C626.37 980.67 627.48 985.43 628.06 990.26C629.04 998.44 629.61 1006.66 630.4 1014.86C630.49 1015.75 630.86 1016.62 631.1 1017.49C631.38 1017.56 631.65 1017.62 631.93 1017.69C632.86 1016.06 634.23 1014.54 634.64 1012.79C638.01 998.34 641.14 983.83 644.53 969.38C645 967.39 646.46 965.64 647.47 963.78C648.52 965.54 650.13 967.17 650.53 969.07C652.46 978.17 654.03 987.33 655.82 996.46C656.1 997.91 656.82 999.28 657.34 1000.68C657.75 1000.74 658.15 1000.79 658.56 1000.85C659.53 998.42 660.89 996.07 661.42 993.55C663.78 982.29 665.91 970.98 668.14 959.69C668.33 958.73 668.49 957.71 668.98 956.89C669.62 955.8 670.56 954.89 671.37 953.91C672.27 954.87 673.63 955.68 673.98 956.81C675.68 962.19 677.17 967.63 678.61 973.09C679.69 977.18 680.16 981.48 682.99 985.73C683.91 984.31 684.89 983.4 685.14 982.32C686.73 975.4 688.14 968.43 689.63 961.49C690.73 956.35 692.18 951.26 692.81 946.06C693.2 942.87 692.58 939.49 691.98 936.27C689.89 924.98 687.92 913.64 685.31 902.46C682.83 891.86 679.86 881.34 676.62 870.94C673.4 860.63 670.01 850.34 665.91 840.36C660.89 828.15 655.39 816.12 649.49 804.31C644.79 794.91 639.43 785.81 633.88 776.88C628.76 768.62 623.2 760.61 617.47 752.76C610.75 743.56 603.79 734.53 596.65 725.64C590.62 718.13 584.19 710.94 577.95 703.59C577.33 702.86 576.83 702.05 576.63 700.71C577.83 701.33 579.22 701.72 580.19 702.59C588.02 709.59 595.88 716.56 603.51 723.77C614.78 734.43 624.46 746.51 633.43 759.09C640.1 768.43 646.35 778.14 652 788.14C658.53 799.7 664.54 811.6 670.14 823.64C673.83 831.57 676.8 839.89 679.37 848.26C683.45 861.57 687.16 875 690.56 888.49C692.26 895.24 693.25 902.22 694.03 909.15C695.19 919.39 696.26 929.66 696.57 939.94C696.69 943.88 698.16 946.97 699.37 950.38C701.26 955.7 702.78 961.15 704.68 966.46C705.18 967.86 706.51 968.96 707.46 970.2C708.31 968.96 709.63 967.82 709.93 966.46C711.56 958.85 713.3 951.22 714.25 943.51C714.7 939.87 713.56 936.01 712.95 932.28C711.64 924.23 710.23 916.2 708.81 908.17C708.05 903.87 707.19 899.59 706.37 895.3C679.9 839.52 653.43 783.75 626.97 727.97M602.09 765.86C622.69 780.26 665.02 869.7 661.23 891.32C647.45 846.17 627.69 804.64 602.09 765.86Z" fill="#10B7C2"/>
<path d="M594.92 660.54C590.6 657.11 586.62 653.1 581.88 650.41C576.44 647.33 570.36 645.38 564.5 643.07C563.74 642.77 562.69 643.21 561.77 643.31C561.98 644.2 561.94 645.27 562.43 645.96C565.16 649.8 568.26 653.39 570.78 657.36C574.04 662.48 578.45 666.19 583.29 669.74C590.52 675.04 597.37 680.84 604.36 686.47C606.06 687.84 607.65 689.37 609.28 690.83L594.91 660.55L594.92 660.54Z" fill="#10B7C2"/>
<path d="M-0.279843 887.45C3.20016 879.66 6.22016 871.62 10.3102 864.17C13.2702 858.77 14.2002 852.9 16.2702 847.33C19.2802 839.23 22.3902 831.17 25.8302 823.25C28.5302 817.02 31.6002 810.93 34.8402 804.96C37.8902 799.35 41.3702 793.98 44.6702 788.5C44.9602 788.01 45.2502 787.52 45.3702 786.79C40.8602 788.82 35.9502 789.93 32.6402 794.16C19.7502 810.62 9.36016 828.64 -0.659844 846.9C-4.03984 853.06 -5.44984 859.89 -7.07984 866.63C-7.39984 867.93 -7.91984 869.19 -8.33984 870.47C-5.64984 876.14 -2.95984 881.8 -0.269843 887.47" fill="#10B7C2"/>
<path d="M-15.65 855.04C-14.27 852.66 -12.52 850.41 -11.6 847.86C-9.78996 842.88 -8.65996 837.65 -6.83996 832.67C-4.11996 825.21 -1.03996 817.89 1.87004 810.5C2.15004 809.8 2.32004 809.05 2.58004 808.17C-3.98996 809.48 -7.46996 813.95 -10.37 819.28C-14.29 826.48 -18.42 833.56 -22.46 840.7C-20.19 845.48 -17.92 850.26 -15.65 855.04Z" fill="#10B7C2"/>
<path d="M27.2 890.58C23.61 900.83 20.36 911.2 16.96 921.52C16.84 921.87 16.57 922.17 16.36 922.5C13.42 916.3 10.48 910.11 7.54004 903.91C7.66004 903.76 7.86004 903.62 7.90004 903.45C9.79004 894.03 11.43 884.55 13.63 875.21C15.11 868.94 15.35 862.26 18.98 856.58C20.29 854.53 21.47 852.38 22.68 850.27C32.19 833.74 41.99 817.38 53.96 802.5C61.57 793.04 69.82 784.1 77.9 775.03C82.92 769.4 88.41 764.33 95.53 761.33C99.33 759.73 102.99 757.82 106.72 756.06C104.67 758.82 102.24 761.03 99.92 763.36C86.55 776.76 74.8 791.43 64.6 807.4C56.99 819.31 50.47 831.71 45.55 844.94C44.44 847.91 43.94 851.1 43.16 854.19C43.51 854.33 43.85 854.47 44.2 854.62C45.23 853.38 46.37 852.22 47.28 850.9C53.08 842.5 58.84 834.06 64.61 825.64C73.76 812.29 84.3 800.07 95.6 788.52C108.72 775.11 123.06 763.09 138.64 752.63C145.02 748.35 151.67 744.44 158.3 740.54C162.42 738.11 166.64 735.82 170.97 733.81C180.21 729.52 189.53 725.43 198.86 721.35L202.89 729.48C200.21 730.42 197.61 731.24 195.18 732.41C185.4 737.12 175.59 741.8 166.01 746.89C153.4 753.59 141.88 761.93 131.02 771.2C108.86 790.11 90.37 811.92 77.73 838.37C76.88 840.14 76.5 842.14 75.91 844.04C76.25 844.2 76.59 844.36 76.92 844.51C79.19 841.87 81.5 839.26 83.72 836.58C89.56 829.51 95.16 822.24 101.22 815.37C112.14 802.99 124.16 791.77 137.12 781.49C152.33 769.42 168.82 759.52 186.09 750.85C192.88 747.44 200.13 744.98 207.16 742.04C207.8 741.77 208.32 741.55 208.77 741.38L214.69 753.33C183.8 764.27 156.84 781.03 134 804.35C125.86 812.66 118.37 821.52 112.92 831.85C113.32 832.27 113.71 832.68 114.11 833.09C143.49 801.27 177.45 776.35 218.88 761.77L225.84 775.82C224.03 777.19 222.27 778.63 220.28 779.58C212.61 783.23 204.66 786.29 197.08 790.11C184.48 796.46 173.11 804.65 162.91 814.42C162.15 815.15 161.54 816.05 161.26 817.45C163.61 815.96 165.95 814.44 168.31 812.97C176.82 807.69 185.24 802.23 193.91 797.21C199.98 793.69 206.36 790.68 212.69 787.62C216.11 785.97 219.67 784.58 223.25 783.32C224.44 782.9 225.91 783.14 227.23 783.28C228.02 783.37 228.81 783.57 229.83 783.84L236.51 797.33C236.26 797.72 235.94 798.12 235.54 798.53C233.29 800.83 233.62 803.42 235.88 804.51C237.32 805.21 238.93 805.57 240.81 806.03L247.32 819.18C246.55 819.88 245.91 820.46 245.39 821.12C243.16 823.96 243.84 826.33 247.27 827.4C248.72 827.85 250.31 827.89 251.8 828.23L258.42 841.61C256.87 842.81 255.23 843.97 254.24 845.54C253.1 847.35 254.63 848.92 256.55 849.42C258.64 849.96 260.78 850.28 262.91 850.66L269.2 863.36C267.7 864.28 266.19 865.2 264.92 866.37C262.45 868.64 263.07 871.26 266.27 872.03C268.67 872.62 271.17 872.85 274.08 873.21L280.39 885.95C278.29 886.88 276.23 887.74 274.39 888.92C271.82 890.57 271.74 893.46 274.21 894.18C277.76 895.2 281.48 895.7 285.57 896.39L291.88 909.13C290.26 908.71 288.27 909.46 284.85 911.09C284.5 911.26 284.04 911.34 283.81 911.61C282.77 912.8 281.8 914.04 280.8 915.26C281.95 916.18 282.98 917.58 284.29 917.92C288.73 919.09 293.26 919.89 297.74 920.93L305.32 936.24C300.81 934.43 296.15 933.53 291.33 935.44C289.98 935.98 289.01 937.48 287.87 938.54C289.04 939.71 290.03 941.25 291.44 941.97C294.39 943.47 297.69 944.29 300.61 945.84C310.39 951.02 315.95 959.13 315.49 970.35C315.28 975.44 313.44 980.44 312.57 985.52C312.33 986.89 312.91 988.4 313.11 989.84C314.65 989.59 316.42 989.74 317.68 989.02C321.69 986.72 323.67 982.8 325.37 978.65C325.53 978.25 325.65 977.87 325.75 977.49L333.31 992.76C331.15 997.26 329.17 1001.27 327.42 1005.38C326.93 1006.52 326.96 1008.86 327.63 1009.3C328.67 1009.99 330.49 1009.65 331.94 1009.48C332.76 1009.39 333.56 1008.82 334.31 1008.38C336.92 1006.86 338.46 1005.77 339.14 1004.53L345.44 1017.25C343.75 1020.28 341.96 1023.26 340.58 1026.43C339.28 1029.4 340.99 1031.35 344.17 1030.59C346.44 1030.05 348.59 1028.92 350.68 1027.83L357.01 1040.61C356.72 1041.13 356.34 1041.65 355.84 1042.18C354.8 1043.28 353.96 1044.8 353.6 1046.26C352.96 1048.91 351.09 1050.33 349.07 1051.69C347.53 1052.72 345.96 1053.71 344.35 1054.61C332.78 1061.06 320.62 1066.05 307.71 1069.13C305.95 1069.55 304.24 1070.2 301.78 1070.98C302.96 1071.37 303.24 1071.54 303.51 1071.54C317.78 1071.5 330.75 1066.91 343.02 1060.04C348.97 1056.71 353.84 1051.37 361.14 1050.5C361.36 1050.47 361.56 1050.37 361.77 1050.23L368.21 1063.23C366.89 1065.01 365.76 1066.73 364.19 1067.79C358.86 1071.37 353.35 1074.74 347.67 1077.72C342.84 1080.26 337.7 1082.21 332.64 1084.29C323.94 1087.88 314.9 1090.37 305.55 1091.33C295.47 1092.36 285.33 1092.84 275.22 1093.57C273.87 1093.67 272.52 1093.89 271.17 1094.05C272.19 1095.22 273.21 1095.85 274.3 1096.04C279.96 1097.05 285.61 1098.49 291.32 1098.77C307.08 1099.54 322.43 1097.29 337.3 1091.7C348.17 1087.62 358.3 1082.32 367.63 1075.42C369.2 1074.26 371.04 1073.38 372.89 1072.68L379.15 1085.32C371.52 1089.99 364.34 1094.92 356.58 1098.66C348.02 1102.8 338.92 1105.93 329.88 1108.96C317.04 1113.26 303.67 1115.35 290.18 1115.34C278.2 1115.32 266.22 1113.98 254.24 1113.22C251.53 1113.05 248.82 1112.87 246.12 1112.7C246.02 1113.11 245.92 1113.53 245.81 1113.94C247.8 1115.02 249.72 1116.27 251.8 1117.14C265.61 1122.92 280.17 1125.01 295 1125.21C313.33 1125.45 331.22 1122.42 348.19 1115.52C360.02 1110.71 371.65 1105.23 381.87 1097.29C382.85 1096.53 383.59 1095.96 384.2 1095.59L389.13 1105.55C388.93 1105.7 388.72 1105.84 388.48 1105.98C383.53 1108.9 378.62 1111.9 373.74 1114.94C363.97 1121.04 353.34 1125.26 342.5 1128.9C329.72 1133.2 316.57 1136.04 303.12 1137.26C289.89 1138.47 276.62 1138.68 263.47 1136.74C251.62 1134.99 239.87 1132.5 228.08 1130.36C226.12 1130 224.13 1129.78 221.37 1129.38C222.17 1130.8 222.37 1131.69 222.91 1132.03C249.49 1148.74 279.07 1152.1 309.76 1151.69C304.83 1154.57 299.8 1157.09 294.64 1159.33C292.82 1160.12 290.69 1160.59 288.71 1160.57C281.31 1160.47 273.86 1160.57 266.52 1159.74C255.69 1158.51 244.83 1157.04 234.19 1154.74C224.3 1152.6 214.69 1149.21 204.93 1146.46C202.86 1145.88 200.69 1145.65 198.57 1145.27C198.43 1145.53 198.29 1145.8 198.15 1146.06C198.58 1146.74 198.89 1147.57 199.48 1148.08C201.38 1149.72 203.26 1151.44 205.37 1152.77C216.08 1159.49 227.41 1164.91 239.55 1168.54C247.06 1170.79 254.62 1172.85 262.71 1175.15C258.69 1177.05 254.96 1178.84 251.21 1180.58C250.9 1180.72 250.44 1180.58 250.06 1180.49C237.12 1177.63 224.05 1175.21 211.27 1171.73C201.13 1168.97 191.34 1164.91 181.38 1161.46C179.01 1160.64 176.12 1160.53 174.3 1159.07C167.31 1153.44 160.44 1147.62 153.95 1141.44C145.29 1133.19 136.66 1124.86 128.68 1115.96C114.6 1100.27 103.15 1082.69 94.35 1063.54C89.63 1053.29 85.75 1042.63 81.88 1032.01C77.06 1018.77 74.51 1004.93 72.55 991.05C70.5 976.56 69.91 961.93 70.15 947.27C70.2 944.25 69.83 941.23 69.65 938.21C69.33 938.18 69 938.15 68.68 938.12C68.15 939.54 67.34 940.93 67.12 942.4C65.89 950.63 64.4 958.85 63.75 967.14C62.07 988.51 64.59 1009.52 70.1 1030.2C71.2 1034.31 72.26 1038.44 73.33 1042.56C65.6 1026.27 57.87 1009.98 50.14 993.69C49.46 985.06 48.44 976.45 48.2 967.81C47.95 959.09 48.29 950.34 48.71 941.62C49.18 932.01 50.05 922.41 50.7 912.81C50.79 911.5 50.64 910.17 50.6 908.85C50.22 908.74 49.83 908.63 49.45 908.52C48.05 911.92 46.17 915.2 45.35 918.73C42.72 930.09 40.38 941.52 38.17 952.97C37.5 956.46 37.61 960.11 37.31 963.68C37.26 964.31 36.97 964.92 36.78 965.54C33.17 957.93 29.55 950.31 25.94 942.7C26.69 934.57 27.18 926.41 28.25 918.33C29.66 907.74 31.55 897.21 33.17 886.65C33.43 884.96 33.32 883.22 33.38 881.51C32.94 881.4 32.51 881.28 32.07 881.17C30.42 884.3 28.37 887.29 27.21 890.6M295.14 971.55C297.31 973.67 300.3 972.91 300.92 969.91C301.28 968.2 300.92 966.33 300.86 963.81C298.94 962.55 297.14 960.91 295.02 960.11C292.79 959.27 291.31 960.78 291.4 963.25C291.52 966.51 292.81 969.28 295.13 971.54M285.22 985.31C282.57 981.89 279.56 978.99 277.8 975.46C276.04 971.93 275.52 967.78 274.45 963.85C271.63 965.78 270.78 970.93 272.47 975.07C275.54 982.57 280 986.3 285.23 985.31M95.74 1024.24C97.95 1031.9 100.57 1039.47 103.58 1046.85C106.48 1053.97 109.75 1060.99 113.48 1067.72C119.81 1079.16 127.13 1090.01 136.26 1099.43C142.48 1105.85 149.17 1111.84 155.8 1117.86C157.54 1119.44 159.84 1120.4 161.88 1121.64C162.2 1121.35 162.52 1121.06 162.84 1120.76C121.28 1079.78 97.76 1030.23 92.31 972.11C91.9 972.18 91.49 972.24 91.09 972.31C90.74 974.69 90.12 977.06 90.08 979.44C89.86 994.63 91.54 1009.63 95.75 1024.23" fill="#10B7C2"/>
</g>
<defs>
<clipPath id="clip0_112_23">
<rect width="595.28" height="841.89" fill="white"/>
</clipPath>
</defs>
</svg>
