<?xml version="1.0" encoding="UTF-8"?>
<svg fill="none" viewBox="0 0 596 842" xmlns="http://www.w3.org/2000/svg">
<g clip-path="url(#b)">
<mask id="a" x="0" y="0" width="596" height="842" style="mask-type:luminance" maskUnits="userSpaceOnUse">
<path d="M595.28 0H0V841.89H595.28V0Z" fill="#fff"/>
</mask>
<g fill="#10B7C2" mask="url(#a)">
<path d="m115.01 488.74c2.95-5.25 5.86-10.52 8.85-15.74 2.8-4.89 5.59-9.78 8.56-14.57 3.78-6.1 7.64-12.15 11.64-18.11 3.35-4.99 7.15-9.67 10.37-14.73 5.06-7.96 13.68-11.57 20.58-17.24 4.22-3.47 9.17-6.08 13.88-8.94 0.76-0.46 1.96-0.21 2.95-0.3-0.11 0.91 0.04 1.96-0.38 2.7-3.06 5.45-6.3 10.8-9.35 16.26-1.52 2.72-2.89 5.54-4.09 8.41-0.44 1.06-0.2 2.4-0.28 3.62 1.27-0.18 2.78 0.02 3.76-0.61 4.73-3.04 9.27-6.39 13.98-9.47 7.77-5.09 15.59-10.11 23.45-15.05 0.72-0.45 1.93-0.13 2.91-0.17-0.2 0.9-0.16 1.97-0.65 2.67-3.9 5.66-8.03 11.17-11.82 16.9-2.52 3.8-4.66 7.85-6.84 11.86-0.4 0.74-0.13 1.83-0.16 2.77 1.02-0.04 2.19 0.22 3.02-0.19 2.35-1.16 4.66-2.47 6.82-3.96 5.04-3.5 9.83-7.38 15.01-10.67 7.66-4.87 15.54-9.39 23.38-13.96 0.69-0.4 1.82-0.06 2.75-0.06-0.31 0.83-0.43 1.8-0.96 2.47-7.46 9.53-15.03 18.97-22.41 28.56-1.51 1.97-2.36 4.45-3.51 6.7 0.35 0.38 0.71 0.75 1.06 1.13 2.62-1.29 5.39-2.34 7.84-3.9 11.37-7.24 22.54-14.78 34.01-21.85 4.78-2.95 10.1-5.01 15.2-7.41 0.75-0.35 1.66-0.37 3.04 0.05-1.16 1.52-2.16 3.2-3.5 4.54-6.35 6.33-13.01 12.38-19.14 18.91-4.36 4.65-8.11 9.89-12.04 14.94-0.68 0.87-0.89 2.1-0.91 3.94 1.35-0.41 2.84-0.57 4.02-1.27 7.78-4.61 15.44-9.43 23.25-13.99 7.79-4.54 15.59-9.09 23.62-13.19 5.87-3 12.09-5.32 18.19-7.86 1.21-0.51 2.58-0.64 3.88-0.95 0.17 0.22 0.33 0.43 0.5 0.65-0.68 0.78-1.26 1.67-2.04 2.31-11.24 9.22-22.69 18.2-33.7 27.69-4.28 3.69-7.64 8.47-11.33 12.83-0.69 0.81-0.95 1.99-1.8 3.85 2-0.52 3.25-0.6 4.25-1.15 8.54-4.71 17-9.55 25.53-14.27 14-7.73 28.39-14.64 43.61-19.68 5.55-1.84 11.23-3.32 16.87-4.88 1.13-0.31 2.36-0.23 3.54-0.32 0.1 0.3 0.21 0.6 0.31 0.9-1 0.58-2 1.16-3.01 1.73-10.07 5.69-20.29 11.14-30.18 17.12-12.09 7.31-23.28 15.85-32.84 26.36-0.2 0.21-0.46 0.41-0.55 0.67-0.4 1.11-0.74 2.23-1.11 3.35 1.19-0.19 2.51-0.11 3.54-0.61 12.1-5.87 24-12.2 36.28-17.66 9.49-4.22 19.36-7.65 29.23-10.94 15.51-5.17 31.45-8.56 47.78-9.79 5.3-0.4 10.62-0.47 15.93-0.68l0.15 1.11c-3.85 0.86-7.69 1.81-11.57 2.57-18.65 3.66-36.69 9.3-53.84 17.44-10.54 5.01-20.92 10.46-29.94 18.06-3.24 2.74-6.55 5.4-9.75 8.19-0.9 0.79-1.5 1.91-2.24 2.88 0.13 0.27 0.26 0.55 0.39 0.82 1.4-0.36 2.87-0.55 4.19-1.1 11.06-4.63 22.04-9.45 33.14-13.97 15.55-6.33 31.81-10.34 48.32-12.83 11.9-1.79 24.04-2.2 36.1-2.7 13.98-0.58 27.82 1.33 41.58 3.6 5.68 0.94 11.26 2.53 16.91 3.7 2.3 0.48 2.76 1.56 2.16 3.74-0.59 2.16-1.47 2.76-3.75 2.23-17.83-4.16-35.86-6.39-54.22-5.77-12.73 0.43-25.32 2.04-37.65 5.04-16.92 4.11-33.24 10.01-47.99 19.54-4.07 2.63-7.88 5.67-11.79 8.54-0.27 0.2-0.38 0.63-0.99 1.71 1.97-0.33 3.38-0.38 4.66-0.82 9.5-3.22 18.89-6.8 28.49-9.72 18.94-5.75 38.3-9.43 58.15-9.37 11.08 0.03 22.21 0.47 33.22 1.68 8.4 0.92 16.64 3.33 24.95 5.1 0.45 0.1 0.85 0.39 1.38 0.65-0.72 2.75-1.26 5.43-2.21 7.96-0.22 0.59-1.88 1.05-2.77 0.91-8.29-1.27-16.51-3.21-24.83-3.92-9.19-0.78-18.49-0.85-27.71-0.56-14.63 0.47-28.87 3.53-42.56 8.6-6.9 2.56-13.39 6.21-20.02 9.46-0.85 0.42-1.42 1.42-2.12 2.15l0.42 0.9c2.88-0.61 5.8-1.05 8.63-1.85 21.53-6.08 43.4-9.83 65.83-8.56 9.6 0.54 19.14 2.14 28.68 3.42 3.57 0.48 7.07 1.45 10.62 2.13 2.14 0.41 2.32 1.46 1.63 3.36-0.96 2.65-1.86 5.38-2.27 8.16-0.35 2.4-1.14 2.94-3.42 2.28-9.9-2.86-20.08-4.01-30.34-4.32-15.95-0.48-31.54 1.54-46.49 7.41-0.81 0.32-1.48 1.02-2.77 1.94 14.08-0.74 27.36-1.87 40.65-2 13.27-0.13 26.38 1.82 39.43 6.07-0.86 2.01-1.8 3.63-2.25 5.38-0.74 2.92-1.32 5.91-1.69 8.91-0.27 2.2-1.03 2.57-3.24 2.26-8.38-1.19-16.8-2.16-25.23-3-2.24-0.22-4.56 0.33-6.84 0.52 0 0.27-0.01 0.53-0.02 0.8 3.12 0.45 6.25 0.81 9.35 1.36 7.11 1.25 14.2 2.62 21.3 3.87 2.56 0.45 3.19 1.9 1.91 3.91-2.85 4.45-3.62 9.28-4 14.48-0.35 4.85-1.98 9.52-5.55 13.33-0.98 1.05-1.31 3.27-1.06 4.81 0.9 5.54-0.48 10.59-3.25 15.16-0.92 1.52-3.46 2.23-5.4 2.91-1.67 0.58-3.54 0.59-5.33 0.85l-0.12 0.8c1.33 0.68 2.65 1.4 4 2.04 2.8 1.32 4.21 3.43 3.81 6.58-0.16 1.26-0.28 2.53-0.59 3.76-1.72 6.92-2.81 7.86-9.82 7.69-12.28-0.28-23.43 2.85-32.99 10.73-5.98 4.93-10.25 11.09-13.1 18.37-4.48 11.46-4.06 22.78 0.63 33.9 3.9 9.26 10.48 16.43 19.13 21.62 0.84 0.5 1.72 0.95 2.53 1.49 2.14 1.44 5.09 2.3 5.04 5.56-0.07 4.51-1.23 8.78-4.46 12.08-0.82 0.83-2.51 0.92-3.84 1.1-1.42 0.18-2.88 0.06-5.22 0.09 1.27 1.31 1.91 2.21 2.77 2.82 3.99 2.83 5.19 6.68 3.56 11.09-1.3 3.52-3.37 6.74-4.96 10.16-0.65 1.4-1.16 2.96-1.29 4.48-0.16 1.83 0.33 3.71 0.21 5.54-0.19 2.85-0.95 3.17-3.58 2.06-8.35-3.53-16.71-7.03-25.07-10.52-0.25-0.11-0.57-0.06-0.88-0.09 1.46 3.52 7.96 7.21 27.65 15.71-2.32 5.18-5.78 10.12-4.34 16.94-12.67-3.34-23.75-8.08-33.83-14.76-9.92-6.58-19.39-13.85-29.31-20.57 5.89 11.52 15.41 19.66 25.74 26.98 10.35 7.34 21.74 12.59 33.76 16.4-1.2 4.56-2.36 8.99-3.51 13.4-36.17-9.97-63.56-32.51-87.15-60.6-0.32 0.25-0.63 0.5-0.95 0.76 0.23 1.14 0.3 2.35 0.73 3.41 4.42 10.7 11.19 19.91 19.11 28.15 5.99 6.23 12.52 12.03 19.37 17.31 9.37 7.21 19.65 13.06 30.73 17.33 4.27 1.65 8.6 3.13 12.94 4.61 1.41 0.48 1.86 1.11 1.31 2.59-0.74 2.01-1.42 4.08-1.81 6.18-0.33 1.78-1.17 2.09-2.65 1.57-4.88-1.7-9.96-2.97-14.58-5.2-10.17-4.9-20.25-10.01-30.08-15.56-10.32-5.83-19.27-13.61-27.87-21.71-11.62-10.94-21.48-23.41-30.81-36.31-1.51-2.08-3.38-3.9-5.08-5.83-0.42 0.2-0.83 0.41-1.25 0.62 1.17 3.8 2.05 7.73 3.56 11.39 7.54 18.24 19.31 33.59 33.27 47.28 14.49 14.2 31.22 25.23 49.74 33.47 5.95 2.65 12.17 4.74 18.38 6.73 3.13 1 1.84 2.76 1.51 4.58-0.42 2.26-1.68 2.48-3.64 1.84-19.48-6.35-37.93-14.88-54.94-26.31-11.02-7.41-21.41-15.68-30.52-25.38-6.39-6.81-12.72-13.75-18.32-21.2-7.18-9.55-13.59-19.68-20.37-29.54-1.58-2.3-3.3-4.51-4.96-6.76-0.34 0.06-0.67 0.11-1.01 0.17-0.14 0.99-0.62 2.09-0.37 2.97 1.74 6.05 3.46 12.11 5.55 18.04 1.54 4.39 3.21 8.84 5.57 12.83 5.47 9.28 10.92 18.62 17.23 27.33 9.07 12.51 19.83 23.57 31.6 33.63 1.25 1.06 2.31 2.34 3.06 4.12-2.03-1.16-4.12-2.22-6.07-3.49-17.25-11.26-31.87-25.37-44.91-41.24-12.5-15.21-22.5-32.01-31.99-49.16-1.23-2.22-2.46-4.45-3.85-6.57-0.7-1.07-1.73-1.91-2.62-2.85-0.33 0.12-0.67 0.23-1 0.34 0.25 3.12 0.23 6.29 0.8 9.36 2.11 11.46 5.79 22.45 10.93 32.89 4.98 10.1 10.35 20.01 15.54 30.02 0.7 1.35 1.29 2.74 1.92 4.12-0.21 0.18-0.41 0.36-0.62 0.53-0.97-0.7-2.06-1.27-2.89-2.11-8.87-8.98-16.19-19.16-23.08-29.7-8.54-13.06-15.51-26.94-22.27-40.96-1.47-3.05-3.52-5.81-5.72-8.54-2.28 3.53-1.47 7.07-1.01 10.42 2.05 14.82 6.59 28.98 11.75 42.96 0.91 2.46 1.67 4.99 2.43 7.5 0.2 0.67 0.16 1.42 0.24 2.12-0.24 0.15-0.49 0.3-0.73 0.45-1.34-1.41-3-2.62-3.96-4.25-6.14-10.35-12.45-20.63-18.08-31.26-4.78-9.03-8.69-18.52-13.09-27.76-0.85-1.79-2.19-3.35-3.3-5.01l-1.23 0.13c-0.31 1.87-0.89 3.74-0.89 5.61-0.05 13.62 3.32 26.73 6.18 39.92 0.53 2.47 0.81 4.99 1.2 7.49-0.4 0.17-0.8 0.33-1.21 0.5-1.2-1.43-2.74-2.7-3.56-4.33-5.04-10.11-10.01-20.26-14.82-30.48-3.15-6.7-6-13.55-8.99-20.32-0.16-0.35-0.35-0.73-0.63-0.98-0.78-0.68-1.61-1.3-2.42-1.95-0.54 0.96-1.52 1.91-1.55 2.89-0.18 4.86-0.38 9.75-0.06 14.6 0.55 8.22 1.51 16.4 2.26 24.61 0.08 0.89-0.13 1.81-0.2 2.72-0.26 0.12-0.52 0.23-0.78 0.35-1.21-1.43-2.85-2.67-3.57-4.32-5.99-13.58-11.76-27.26-17.76-40.83-0.83-1.86-2.59-3.31-3.93-4.95-0.71 1.92-1.98 3.83-2.02 5.76-0.21 9.29-0.06 18.6-0.12 27.9 0 1.48-0.46 2.95-0.71 4.43l-1.17 0.39c-1.41-2.21-3.17-4.26-4.16-6.64-4.41-10.63-8.59-21.35-12.88-32.03-0.36-0.9-0.72-1.88-1.34-2.59-0.83-0.95-1.92-1.67-2.9-2.49-0.7 1.11-1.89 2.16-2.03 3.33-0.67 5.6-1.12 11.23-1.53 16.85-0.31 4.22 0.03 8.53-1.97 13.24-1.17-1.22-2.3-1.93-2.75-2.95-2.84-6.51-5.5301-13.09-8.2701-19.64-2.03-4.85-4.41-9.58-5.99-14.57-0.97-3.06-0.99-6.5-1-9.78-0.04-11.49-0.21-22.99 0.29-34.46 0.47-10.88 1.44-21.76 2.7-32.58 1.25-10.73 2.68-21.47 4.86-32.04 2.6701-12.93 5.8401-25.77 9.4601-38.47 2.88-10.11 6.46-20.04 10.25-29.85 3.5-9.06 7.48-17.96 11.66-26.74 4.9-10.29 10.07-20.45 15.43-30.51 4.53-8.5 9.52-16.76 14.29-25.13 0.47-0.83 0.82-1.72 0.76-3.08-1.06 0.83-2.36 1.47-3.15 2.51-6.39 8.33-12.83 16.64-18.99 25.14-9.1 12.56-16.37 26.23-22.86 40.25-4.82 10.42-9.16 21.12-12.86 31.99-4.2801 12.57-7.9701 25.37-11.24 38.25-2.15 8.47-3.53 17.21-4.5 25.91-1.54 13.83-2.69 27.72-3.54 41.61-0.42 6.95-0.1 13.99 0.42 20.95 0.76 10.27 1.61 20.57 3.21 30.73 0.61 3.89-0.26 7.2-0.81 10.78-0.87 5.58-1.36 11.21-2.24 16.79-0.23 1.47-1.33 2.79-2.04 4.19-1.06-1.06-2.58-1.94-3.12-3.22-3.01-7.18-6.14-14.35-8.5-21.75-1.11-3.49-0.72-7.5-0.81-11.28-0.2-8.15-0.31-16.31-0.4-24.46-0.05-4.37 0-8.73 0.01-13.1 15.67-59.71 31.34-119.43 47.01-179.14m31.47 32.62c-17.57 17.97-42.6 113.71-34.86 134.24 5.17-46.92 16.89-91.4 34.86-134.24z"/>
<path d="m418.48 663.81c4.06-16.77 20.63-29.39 37.56-28.13 8.94 0.66 9.11 2.3 7.11 10.45-0.96 3.88-3.17 5.13-7.11 5.29-10.78 0.44-18.5 5.91-21.69 16.19-2.56 8.23-0.75 17.93 9.23 25.2 5.29 3.85 5.75 5.331 3.27 11.471-1.92 4.75-4.23 5.679-8.92 3.419-10.25-4.94-16.58-13.16-19.55-23.99-1.79-6.51-1.87-13.12 0.11-19.89"/>
<path d="m455.66 673.49c-0.74 2.83-1.38 5.7-2.26 8.49-0.9 2.87-2.64 3.37-5.15 1.73-3.82-2.51-6.08-8.89-4.69-13.26 1.52-4.81 6.37-8.68 10.97-8.77 3.06-0.06 3.93 0.95 3.22 3.89-0.64 2.66-1.38 5.29-2.07 7.94h-0.02"/>
<path d="m690.02 799.3c-5.04 7.04-9.83 14.28-15.18 21.07-5.29 6.7-11.1 12.99-16.78 19.38-9.54 10.73-22.64 16.36-34.51 23.71-4.87 3.02-10.26 5.17-15.21 8.07-4.7 2.75-9.07 1.89-14.12-0.45 1.45-0.99 2.69-1.76 3.85-2.63 8.62-6.49 17.46-12.72 25.77-19.58 6.19-5.12 11.84-10.89 15.76-18.16 0.86-1.59 3.27-2.33 4.92-3.52 11.82-8.58 21.74-19.06 30.4-30.75 4.86-6.57 9.9-13.09 13.93-20.16 5.05-8.84 9.16-18.23 13.7-27.38 0.33-0.67 0.81-1.28 1.21-1.91-4.58 17.44-9.15 34.88-13.73 52.32"/>
<path d="m734.49 537.34c5.43 9.41 10.55 19 15.8 28.51 0.18 0.33 0.51 0.57 0.77 0.85 1.74-6.64 3.48-13.27 5.22-19.9-0.15-0.13-0.37-0.22-0.44-0.38-3.61-8.9-6.98-17.91-10.87-26.69-2.61-5.89-4.09-12.4-8.71-17.32-1.67-1.77-3.22-3.66-4.81-5.51-12.41-14.48-25.07-28.74-39.59-41.15-9.23-7.88-19-15.14-28.62-22.55-5.97-4.6-12.31-8.57-19.86-10.2-4.03-0.87-7.98-2.06-11.97-3.11 2.53 2.33 5.32 4.06 8.03 5.91 15.62 10.69 29.89 22.93 42.88 36.73 9.68 10.29 18.39 21.27 25.68 33.36 1.64 2.71 2.73 5.76 4.07 8.65-0.31 0.2-0.63 0.41-0.94 0.61-1.24-1.02-2.57-1.96-3.71-3.09-7.26-7.18-14.48-14.4-21.71-21.61-11.47-11.43-24.09-21.48-37.33-30.73-15.38-10.75-31.7-19.9-48.95-27.29-7.07-3.03-14.32-5.63-21.56-8.24-4.5-1.62-9.07-3.09-13.7-4.27-9.87-2.5-19.79-4.79-29.72-7.07l-2.45 8.74c2.81 0.42 5.51 0.75 8.12 1.45 10.48 2.82 20.99 5.6 31.35 8.82 13.63 4.24 26.5 10.31 38.89 17.4 25.28 14.47 47.49 32.48 64.82 56.13 1.16 1.59 1.91 3.48 2.84 5.23-0.3 0.22-0.61 0.44-0.91 0.65-2.72-2.18-5.48-4.31-8.15-6.54-7.05-5.86-13.9-11.97-21.13-17.6-13.02-10.14-26.91-18.93-41.56-26.64-17.18-9.04-35.23-15.72-53.8-21.03-7.3-2.09-14.89-3.17-22.34-4.76-0.68-0.14-1.23-0.26-1.71-0.35l-3.6 12.84c32.38 5.02 61.99 16.5 88.75 35.18 9.54 6.66 18.54 13.98 25.81 23.12-0.31 0.48-0.63 0.96-0.94 1.44-34.77-25.82-72.76-44.01-116.17-50.66l-4.23 15.1c2.03 1.01 4.03 2.1 6.16 2.66 8.21 2.16 16.6 3.69 24.75 6.04 13.56 3.91 26.25 9.84 38.09 17.56 0.89 0.58 1.65 1.35 2.18 2.67-2.59-1.03-5.16-2.09-7.76-3.09-9.35-3.61-18.63-7.41-28.07-10.74-6.62-2.33-13.44-4.11-20.23-5.94-3.67-0.99-7.42-1.69-11.18-2.26-1.24-0.19-2.65 0.32-3.92 0.7-0.76 0.23-1.5 0.58-2.45 1.03l-4.06 14.49c0.32 0.34 0.7 0.67 1.17 1 2.64 1.84 2.79 4.45 0.77 5.94-1.29 0.95-2.8 1.61-4.56 2.4l-3.96 14.14c0.89 0.55 1.62 0.99 2.25 1.55 2.72 2.38 2.49 4.83-0.68 6.52-1.34 0.71-2.89 1.04-4.29 1.65l-4.03 14.37c1.75 0.89 3.58 1.73 4.84 3.09 1.46 1.57 0.24 3.4-1.55 4.24-1.95 0.92-3.99 1.63-6.02 2.39l-3.83 13.64c1.64 0.63 3.3 1.25 4.76 2.16 2.85 1.78 2.72 4.46-0.27 5.82-2.25 1.02-4.66 1.72-7.46 2.61l-3.84 13.69c2.23 0.52 4.41 0.99 6.45 1.81 2.83 1.15 3.44 3.98 1.16 5.13-3.3 1.67-6.86 2.85-10.75 4.27l-3.84 13.69c1.51-0.71 3.6-0.34 7.27 0.63 0.38 0.1 0.84 0.1 1.12 0.32 1.24 0.97 2.43 2.01 3.63 3.02-0.96 1.11-1.71 2.68-2.93 3.26-4.14 1.97-8.45 3.6-12.65 5.45l-4.61 16.45c4.1-2.61 8.51-4.36 13.6-3.38 1.43 0.28 2.66 1.58 3.98 2.41-0.94 1.37-1.62 3.06-2.87 4.03-2.62 2.02-5.71 3.44-8.3 5.5-8.65 6.91-12.61 15.9-10.08 26.84 1.15 4.96 3.88 9.54 5.68 14.37 0.49 1.3 0.2 2.89 0.27 4.35-1.56 0.04-3.27 0.52-4.64 0.04-4.37-1.51-7.04-5-9.48-8.77-0.23-0.36-0.42-0.71-0.59-1.07l-4.6 16.41c2.96 4.02 5.64 7.6 8.13 11.31 0.69 1.03 1.1 3.33 0.52 3.89-0.89 0.87-2.74 0.87-4.2 0.98-0.83 0.06-1.71-0.35-2.53-0.64-2.85-1.01-4.56-1.79-5.46-2.89l-3.83 13.67c2.22 2.66 4.54 5.26 6.48 8.12 1.82 2.68 0.51 4.91-2.76 4.76-2.33-0.11-4.65-0.82-6.91-1.51l-3.85 13.73c0.38 0.46 0.85 0.9 1.44 1.32 1.22 0.89 2.33 2.22 2.96 3.6 1.12 2.49 3.22 3.54 5.46 4.5 1.7 0.73 3.43 1.41 5.18 2 12.57 4.19 25.44 6.85 38.7 7.47 1.81 0.08 3.6 0.41 6.17 0.72-1.09 0.6-1.33 0.82-1.6 0.87-14.03 2.6-27.62 0.5-40.96-3.98-6.47-2.17-12.24-6.51-19.57-6.01-0.22 0.01-0.44-0.04-0.67-0.15l-3.92 13.97c1.62 1.5 3.05 2.99 4.8 3.74 5.9 2.53 11.94 4.82 18.08 6.7 5.21 1.6 10.63 2.56 15.99 3.67 9.21 1.91 18.56 2.69 27.92 1.9 10.1-0.85 20.15-2.27 30.22-3.42 1.35-0.15 2.71-0.19 4.07-0.28-0.78 1.33-1.67 2.14-2.71 2.54-5.38 2.04-10.67 4.5-16.22 5.83-15.34 3.67-30.85 4.31-46.49 1.58-11.44-2-22.38-5.33-32.83-10.38-1.76-0.85-3.73-1.37-5.67-1.71l-3.81 13.59c8.36 3.17 16.33 6.68 24.65 8.93 9.18 2.48 18.7 3.87 28.15 5.17 13.42 1.85 26.94 1.42 40.19-1.09 11.77-2.24 23.29-5.78 34.92-8.74 2.63-0.67 5.26-1.35 7.89-2.02 0.18 0.39 0.35 0.78 0.53 1.17-1.76 1.43-3.41 3.01-5.3 4.25-12.5 8.24-26.42 12.99-40.96 15.94-17.97 3.64-36.11 3.97-54.07 0.33-12.52-2.53-24.96-5.77-36.48-11.67-1.1-0.56-1.94-0.98-2.61-1.24l-3 10.7c0.22 0.11 0.46 0.21 0.72 0.3 5.41 1.95 10.79 3.99 16.14 6.08 10.73 4.18 21.96 6.36 33.29 7.93 13.35 1.85 26.8 2.21 40.25 0.92 13.22-1.27 26.3-3.51 38.86-7.86 11.32-3.92 22.4-8.54 33.6-12.83 1.86-0.71 3.77-1.3 6.41-2.2-0.53 1.55-0.56 2.45-1.02 2.89-23.02 21.35-51.47 30.13-81.7 35.41 5.38 1.92 10.79 3.47 16.27 4.71 1.94 0.44 4.11 0.51 6.06 0.12 7.26-1.47 14.6-2.75 21.65-4.93 10.42-3.22 20.81-6.68 30.85-10.91 9.32-3.93 18.14-9.05 27.22-13.56 1.92-0.96 4.02-1.58 6.03-2.35 0.19 0.23 0.37 0.46 0.56 0.7-0.3 0.75-0.45 1.62-0.93 2.23-1.56 1.96-3.09 4.01-4.92 5.71-9.27 8.59-19.41 16.01-30.66 21.83-6.96 3.6-14.01 7.03-21.53 10.79 4.3 1.13 8.3 2.19 12.31 3.2 0.33 0.08 0.76-0.15 1.11-0.3 12.19-5.21 24.58-10.01 36.49-15.79 9.46-4.59 18.32-10.39 27.46-15.63 2.17-1.25 4.99-1.89 6.51-3.67 5.82-6.83 11.5-13.82 16.73-21.1 6.98-9.71 13.92-19.5 20.11-29.72 10.93-18.03 18.92-37.43 24.02-57.87 2.73-10.95 4.58-22.14 6.4-33.3 2.28-13.9 2.23-27.98 1.58-41.98-0.67-14.62-2.81-29.11-5.76-43.46-0.61-2.96-0.8-6-1.19-9 0.31-0.09 0.62-0.18 0.94-0.27 0.79 1.3 1.84 2.51 2.33 3.92 2.73 7.86 5.72 15.66 7.9 23.68 5.61 20.69 7.03 41.8 5.45 63.14-0.31 4.25-0.59 8.5-0.89 12.75 4.58-17.44 9.15-34.88 13.73-52.32-0.93-8.6-1.53-17.26-2.89-25.8-1.37-8.61-3.33-17.15-5.36-25.64-2.24-9.36-4.88-18.63-7.3-27.95-0.33-1.27-0.43-2.6-0.63-3.91 0.36-0.18 0.71-0.36 1.07-0.54 2 3.08 4.47 5.95 5.92 9.27 4.69 10.67 9.1 21.47 13.4 32.31 1.31 3.31 1.88 6.91 2.83 10.37 0.17 0.61 0.57 1.16 0.86 1.73 2.14-8.15 4.28-16.3 6.42-24.46-2.24-7.85-4.23-15.77-6.79-23.52-3.35-10.15-7.16-20.14-10.7-30.22-0.57-1.61-0.78-3.34-1.16-5.02 0.41-0.19 0.82-0.38 1.22-0.57 2.2 2.77 4.77 5.33 6.52 8.36m-248.28 129.21c-1.74 2.48-4.82 2.29-5.98-0.54-0.67-1.62-0.66-3.52-1.08-6 1.66-1.59 3.12-3.54 5.05-4.72 2.04-1.24 3.77-0.02 4.14 2.41 0.49 3.23-0.27 6.18-2.13 8.84m12.29 11.69c1.97-3.85 4.39-7.26 5.47-11.06 1.08-3.79 0.81-7.97 1.14-12.03 3.13 1.37 4.92 6.28 4.02 10.66-1.63 7.94-5.32 12.43-10.64 12.43m193.42 3.13c-0.75 7.93-1.93 15.86-3.51 23.67-1.53 7.54-3.45 15.04-5.86 22.35-4.1 12.41-9.28 24.43-16.5 35.38-4.92 7.47-10.39 14.59-15.79 21.73-1.42 1.87-3.49 3.24-5.27 4.84-0.37-0.23-0.74-0.45-1.11-0.68 33.24-47.97 47.17-101.02 41.75-159.14 0.41 0 0.83-0.02 1.24-0.03 0.78 2.27 1.84 4.49 2.31 6.82 3.03 14.89 4.16 29.93 2.73 45.07"/>
</g>
</g>
<defs>
<clipPath id="b">
<rect width="595.28" height="841.89" fill="#fff"/>
</clipPath>
</defs>
</svg>
