<svg width="595" height="200" viewBox="0 0 595 200" fill="none" xmlns="http://www.w3.org/2000/svg">
<path fill-rule="evenodd" clip-rule="evenodd" d="M595 173.196V166.898C594.196 166.598 593.338 166.353 592.42 166.17C592.499 166.437 592.57 166.692 592.638 166.938C592.793 167.501 592.935 168.013 593.13 168.5C593.747 170.068 594.372 171.632 595 173.196ZM576.73 200H592.957C583.758 183.424 574.095 167.146 562.36 152.16C559.789 148.874 556.252 147.471 552.687 146.057C551.663 145.65 550.636 145.243 549.63 144.79C549.75 145.52 550.04 146.01 550.33 146.5C551.32 148.144 552.326 149.779 553.333 151.413L553.333 151.413C555.68 155.225 558.025 159.034 560.16 162.96C563.4 168.93 566.47 175.02 569.17 181.25C571.854 187.431 574.338 193.696 576.73 200ZM0 81.604V200H331.986C332.186 199.719 332.388 199.43 332.59 199.13C320.56 192.53 308.04 188.18 294.97 185.85C285.942 184.241 276.828 183.1 267.45 181.926L267.449 181.926L267.448 181.925L267.447 181.925C263.24 181.398 258.979 180.865 254.65 180.28C255.178 180.04 255.616 179.811 256.003 179.61L256.003 179.61C256.678 179.259 257.193 178.991 257.74 178.89C273.52 175.9 289.22 176.8 304.8 180.23C314.82 182.43 324.61 185.45 333.81 190.1C335.93 191.17 336.8 190.79 337.59 188.49C338.5 185.84 339.89 183.33 341.33 180.9C342.36 179.16 342.37 178.1 340.35 177.3C339.105 176.807 337.874 176.276 336.643 175.745C334.552 174.842 332.463 173.941 330.31 173.23C328.221 172.537 326.135 171.828 324.048 171.119C317.006 168.726 309.957 166.332 302.76 164.55C280.96 159.14 258.77 158.77 236.49 160.76C234.526 160.934 232.543 160.942 230.561 160.949C229.597 160.953 228.632 160.957 227.67 160.98L227.43 160.02C227.687 159.835 227.936 159.621 228.186 159.407L228.186 159.407C228.732 158.939 229.279 158.471 229.91 158.3C231.826 157.772 233.738 157.214 235.65 156.655C240.844 155.137 246.041 153.619 251.34 152.72C265.74 150.27 280.3 149.91 294.76 152.16C303.88 153.57 313 155.37 321.89 157.84C327.086 159.286 332.145 161.227 337.207 163.17L337.207 163.17L337.207 163.17L337.207 163.17L337.208 163.171L337.208 163.171L337.209 163.171L337.209 163.171L337.21 163.171C339.988 164.238 342.767 165.304 345.57 166.29C346.42 166.59 348.13 166.45 348.46 165.91C349.486 164.217 350.313 162.407 351.162 160.549L351.162 160.547C351.472 159.87 351.784 159.186 352.11 158.5C351.949 158.382 351.803 158.263 351.665 158.15C351.392 157.928 351.149 157.729 350.87 157.61C348.523 156.627 346.193 155.588 343.862 154.549L343.862 154.549C338.415 152.121 332.965 149.692 327.3 147.97C316.71 144.74 305.85 142.24 294.97 140.16C275.47 136.42 255.77 136.45 236.09 138.59C229.664 139.293 223.264 140.283 216.864 141.273L216.861 141.274C213.342 141.818 209.823 142.363 206.3 142.86C205.413 142.985 204.505 142.936 203.412 142.876L203.412 142.876C202.853 142.846 202.247 142.813 201.57 142.8C201.88 142.432 202.097 142.146 202.264 141.926C202.529 141.577 202.67 141.391 202.86 141.3C204.084 140.712 205.303 140.109 206.522 139.507L206.523 139.506C209.659 137.958 212.798 136.407 216.03 135.09C232.29 128.46 249.42 125.69 266.81 124.79C279.48 124.13 292.15 124.89 304.74 126.82C322.89 129.61 340.2 135.15 356.95 142.54C359.09 143.48 360.07 143.05 361.05 141.04C362.04 139 361.79 137.85 359.62 136.96C357.53 136.098 355.464 135.176 353.399 134.254L353.398 134.253C350.189 132.82 346.982 131.388 343.69 130.19C330.59 125.41 317.34 120.97 303.5 118.95C303.121 118.894 302.742 118.838 302.362 118.783L301.329 118.631C290.106 116.981 278.831 115.323 267.53 114.91C250.84 114.3 234.12 115.22 217.67 118.56C210.502 120.018 203.356 121.591 196.213 123.164C191.646 124.169 187.08 125.175 182.51 126.15C181.552 126.355 180.557 126.378 179.563 126.4C179.104 126.411 178.645 126.421 178.19 126.45C178.156 126.322 178.124 126.196 178.092 126.071C178.069 125.98 178.046 125.891 178.022 125.802C178.002 125.724 177.981 125.647 177.96 125.57C178.247 125.311 178.523 125.035 178.798 124.759C179.397 124.159 179.995 123.56 180.7 123.15C183.021 121.786 185.374 120.483 187.728 119.18C189.087 118.427 190.446 117.674 191.8 116.91C202.08 111.11 213.28 107.68 224.57 104.71C242.93 99.8796 261.7 97.6896 280.71 97.5496C283.388 97.5292 286.062 97.4216 288.737 97.3138L288.737 97.3138C290.008 97.2626 291.278 97.2114 292.55 97.1696L292.61 96.0596C290.965 95.8187 289.321 95.5632 287.678 95.3077L287.677 95.3075C284.067 94.7462 280.458 94.185 276.83 93.7796C260.55 91.9496 244.26 92.3296 228.06 94.5396C217.76 95.9396 207.42 97.4796 197.31 99.8696C188.716 101.9 180.212 104.327 171.708 106.755L171.708 106.755L171.708 106.755L171.708 106.755L171.707 106.755C167.269 108.022 162.831 109.289 158.38 110.5C157.628 110.703 156.798 110.617 155.968 110.531C155.573 110.49 155.177 110.449 154.79 110.44C154.979 110.098 155.164 109.755 155.35 109.412L155.353 109.405C155.727 108.714 156.1 108.023 156.5 107.35C156.603 107.18 156.793 107.054 156.978 106.931L157.023 106.901C157.047 106.885 157.071 106.87 157.094 106.854C157.12 106.836 157.145 106.818 157.17 106.8C168.52 98.2396 181.09 91.9196 194.33 86.9796C201.849 84.1748 209.473 81.6448 217.097 79.1152L217.1 79.1142C220.457 78.0004 223.813 76.8867 227.16 75.7496C227.792 75.5312 228.421 75.3094 229.049 75.0882L229.05 75.0876C229.514 74.9242 229.977 74.761 230.44 74.5996C230.415 74.4404 230.393 74.2837 230.37 74.1271L230.37 74.1266L230.37 74.1261L230.37 74.1256V74.1254C230.361 74.0578 230.351 73.9901 230.341 73.9223L230.33 73.8442C230.324 73.8087 230.319 73.7731 230.314 73.7375L230.3 73.6496C229.941 73.61 229.579 73.5537 229.218 73.4974C228.393 73.3688 227.567 73.2401 226.76 73.3096C225.637 73.404 224.513 73.495 223.389 73.5861L223.389 73.5862C218.678 73.9678 213.963 74.3499 209.28 74.9796C193.4 77.1196 177.97 81.2296 162.78 86.2396C158.004 87.8075 153.239 89.4154 148.473 91.0234L148.47 91.0242C143.997 92.5335 139.523 94.043 135.04 95.5196C134.333 95.7489 133.552 95.7679 132.519 95.7931C131.975 95.8063 131.361 95.8213 130.65 95.8696C131.067 95.276 131.395 94.7548 131.682 94.2995C132.207 93.466 132.593 92.8529 133.13 92.4196C134.328 91.446 135.509 90.4372 136.69 89.4276C139.878 86.7041 143.073 83.9742 146.64 81.9096C155.281 76.9088 164.079 72.177 172.876 67.4452L172.882 67.4417L172.884 67.4406L172.885 67.4401L172.886 67.4396C176.892 65.2848 180.899 63.1299 184.89 60.9496C185.493 60.6177 186.022 60.1574 186.553 59.696L186.553 59.6958L186.554 59.6951C186.806 59.4756 187.059 59.2558 187.32 59.0496C187.261 58.9305 187.199 58.809 187.137 58.6875L187.136 58.6857C187.098 58.6124 187.061 58.5391 187.024 58.4663C186.999 58.4171 186.974 58.3681 186.95 58.3196C186.53 58.3385 186.106 58.3395 185.682 58.3405C184.763 58.3427 183.843 58.3449 182.96 58.5296C181.318 58.8779 179.67 59.2101 178.021 59.5423L178.02 59.5425C173.184 60.5171 168.343 61.4926 163.63 62.8796C154.99 65.4196 146.48 68.4396 137.98 71.4596C133.231 73.1486 128.512 74.9278 123.794 76.707L123.792 76.7076C120.047 78.1199 116.301 79.5323 112.54 80.8996C111.661 81.2155 110.678 81.2626 109.695 81.3097C109.247 81.3311 108.799 81.3526 108.36 81.3996C108.73 79.5996 109.16 78.4296 109.99 77.6996C111.105 76.7148 112.212 75.7187 113.318 74.7226L113.319 74.7223L113.319 74.7221L113.319 74.7218L113.32 74.7216L113.32 74.7214C116.978 71.4289 120.637 68.136 124.59 65.2496C129.202 61.8797 133.985 58.7452 138.767 55.6108L138.767 55.6106L138.77 55.6091L138.77 55.6086L138.771 55.6083C141.494 53.8232 144.218 52.0381 146.91 50.2096C147.977 49.4775 148.923 48.5628 149.869 47.6481C150.305 47.226 150.742 46.8038 151.19 46.3996C149.91 45.7296 149.01 45.5796 148.21 45.7896C146.67 46.1901 145.118 46.5604 143.566 46.9307C139.615 47.8734 135.662 48.8165 131.9 50.2596C124.318 53.1648 116.808 56.2626 109.298 59.3603L109.296 59.361L109.296 59.3613C104.347 61.4025 99.3989 63.4436 94.4301 65.4296C92.59 66.1656 90.6479 66.6415 88.7079 67.1169C87.8013 67.3391 86.8951 67.5611 86 67.8096L85.17 66.5096C85.6619 65.8781 86.1275 65.2165 86.5932 64.5547L86.5938 64.5538L86.5948 64.5523L86.5963 64.5502C87.5972 63.1278 88.5984 61.7049 89.8601 60.5796C95.5008 55.5455 101.212 50.5778 106.923 45.6106L106.923 45.6103L106.923 45.61L106.924 45.6097L106.924 45.6094C110.345 42.634 113.765 39.6588 117.17 36.6696C117.597 36.2901 117.872 35.7407 118.149 35.1894C118.28 34.9272 118.412 34.6646 118.56 34.4196C118.272 34.3657 117.971 34.2738 117.67 34.1819C117.02 33.9835 116.369 33.785 115.85 33.9696C114.821 34.3341 113.792 34.6979 112.763 35.0618C105.238 37.7223 97.7059 40.385 90.29 43.3496C86.8455 44.7238 83.4963 46.3398 80.1469 47.9559C77.9635 49.0094 75.78 50.063 73.5701 51.0496C71.17 52.1196 68.66 52.9696 66.13 53.6796C65.5103 53.8517 64.7957 53.6777 64.0809 53.5037C63.7578 53.425 63.4345 53.3463 63.12 53.2996C63.1859 53.0139 63.2253 52.7064 63.2646 52.399C63.3505 51.7273 63.4365 51.0555 63.8 50.6096L63.9967 50.3678L64.5266 49.7156C67.1634 46.4695 69.8075 43.2145 72.7201 40.2196C75.5423 37.3207 78.4653 34.5156 81.3886 31.7101L81.389 31.7097L81.3893 31.7094L81.3901 31.7088L81.3921 31.7068C83.4292 29.7519 85.4665 27.7968 87.4701 25.8096C87.8843 25.3954 88.0864 24.7783 88.2892 24.1588C88.3852 23.8659 88.4813 23.5724 88.6001 23.2996C88.2897 23.2548 87.9629 23.169 87.6361 23.0833C86.9417 22.901 86.2473 22.7188 85.7101 22.9296C77.0701 26.3296 68.46 29.7996 59.88 33.3696C57.4831 34.3652 55.1138 35.4225 52.7446 36.4797C49.9741 37.716 47.2039 38.9522 44.39 40.0896C43.6485 40.3917 42.7324 40.2601 41.8168 40.1285C41.3989 40.0684 40.9811 40.0084 40.5801 39.9896C40.669 39.6275 40.7326 39.2486 40.7962 38.8694L40.7964 38.8681C40.9399 38.0118 41.0836 37.1547 41.52 36.4896C43.23 33.8896 45.0901 31.3796 47.0901 28.9896C49.1327 26.5507 51.214 24.1479 53.2947 21.7458L53.2985 21.7414L53.3007 21.7388L53.302 21.7372L53.3029 21.7362C55.3145 19.414 57.3254 17.0925 59.3 14.7396C59.6678 14.2969 59.8083 13.6641 59.949 13.0306C60.0148 12.7339 60.0807 12.4371 60.17 12.1596C59.8612 12.1252 59.5388 12.0569 59.216 11.9884C58.5042 11.8375 57.7911 11.6863 57.2201 11.8996C55.9957 12.3608 54.76 12.8051 53.5233 13.2497L53.5205 13.2507C49.556 14.676 45.5804 16.1053 41.9301 18.1096C39.3959 19.4995 36.7269 20.6429 34.0572 21.7865C28.4677 24.1809 22.8751 26.5767 18.51 31.2396C16.2214 33.6786 13.7776 35.9688 11.3343 38.2586L11.3325 38.2603C9.38867 40.082 7.44513 41.9035 5.58008 43.7996C3.70526 45.7079 1.84576 47.6315 0 49.5678V73.8885C4.02643 70.2221 8.08899 66.5935 12.1514 62.9651L12.1523 62.9642L12.1541 62.9625L12.1823 62.9374C13.0583 62.1549 13.9344 61.3725 14.8101 60.5896C15.4691 59.9985 16.322 59.629 17.1775 59.2584L17.1782 59.258C17.5816 59.0833 17.9856 58.9082 18.37 58.7096C18.17 60.0496 17.6701 60.8596 17.05 61.5896C15.0115 63.9908 12.9526 66.375 10.894 68.7588C7.22284 73.01 3.55261 77.2601 0 81.604ZM0 18.7395V36.8586C3.84583 33.7418 7.72003 30.6647 11.71 27.7399C16.55 24.1899 20.96 20.4799 24.22 15.3599C25.752 12.9463 27.4985 10.6731 29.2459 8.39884L29.2461 8.3987L29.2463 8.39849L29.2465 8.39813L29.2466 8.39791L29.2468 8.39777C30.3732 6.93162 31.5 5.46499 32.5699 3.95995C32.9028 3.49122 32.9911 2.84712 33.0793 2.20322V2.203L33.0795 2.20125C33.1212 1.89794 33.1628 1.59472 33.23 1.30992C32.9399 1.27839 32.637 1.21307 32.3342 1.14779C31.6767 1.00604 31.0203 0.86452 30.4999 1.06993C29.0705 1.63346 27.6279 2.17555 26.1847 2.71786L26.1845 2.71789L26.184 2.71808L26.1808 2.71923C21.7092 4.39949 17.2318 6.0819 13.1199 8.4099C9.83307 10.2752 6.91168 12.7753 3.98889 15.2766L3.98853 15.2769L3.98761 15.2776L3.98724 15.2779C2.69562 16.3832 1.40375 17.4888 0.0799561 18.5399L0.0899658 18.5499L0 18.7395ZM337.088 200H515.909C514.352 198.205 512.795 196.408 511.28 194.58C509.301 192.184 507.349 189.764 505.398 187.346L505.397 187.345L505.397 187.344C501.591 182.627 497.786 177.911 493.78 173.37C482.86 160.99 470.84 149.77 457.88 139.49C442.67 127.42 426.18 117.52 408.91 108.85C404.386 106.578 399.658 104.728 394.927 102.876L394.927 102.876C392.557 101.949 390.186 101.021 387.84 100.04L387.785 100.016L387.785 100.016C387.17 99.7569 386.667 99.5447 386.23 99.3796L380.31 111.33C411.2 122.27 438.16 139.03 461 162.35C469.14 170.66 476.63 179.52 482.08 189.85L482.022 189.91C481.643 190.309 481.271 190.699 480.89 191.09C451.51 159.27 417.55 134.35 376.12 119.77L369.16 133.82C369.413 134.011 369.664 134.203 369.916 134.396L369.917 134.397C371.467 135.583 373.008 136.763 374.72 137.58C378.064 139.171 381.46 140.65 384.857 142.129L384.857 142.129L384.857 142.129C389.251 144.042 393.645 145.955 397.92 148.11C410.52 154.46 421.89 162.65 432.09 172.42C432.85 173.15 433.46 174.05 433.74 175.45C432.877 174.903 432.016 174.352 431.155 173.801L431.154 173.8C429.669 172.85 428.183 171.9 426.69 170.97C424.276 169.472 421.87 167.96 419.462 166.447L419.46 166.446L419.459 166.445C413.381 162.626 407.3 158.805 401.09 155.21C395.633 152.045 389.925 149.293 384.229 146.546C383.589 146.237 382.949 145.929 382.31 145.62C378.89 143.97 375.33 142.58 371.75 141.32C370.699 140.949 369.429 141.093 368.238 141.228L368.236 141.228C368.079 141.246 367.924 141.263 367.77 141.28C366.98 141.37 366.19 141.57 365.17 141.84L358.49 155.33C358.74 155.72 359.06 156.12 359.46 156.53C361.71 158.83 361.38 161.42 359.12 162.51C357.799 163.152 356.335 163.508 354.651 163.917L354.65 163.917C354.499 163.954 354.345 163.992 354.19 164.03L347.68 177.18L347.702 177.2C348.462 177.891 349.095 178.466 349.61 179.12C351.84 181.96 351.16 184.33 347.73 185.4C346.892 185.66 346.008 185.783 345.123 185.906L345.123 185.906H345.123C344.476 185.996 343.829 186.086 343.2 186.23L336.58 199.61C336.746 199.738 336.913 199.866 337.08 199.995C337.083 199.996 337.085 199.998 337.088 200ZM518.512 200C518.172 198.753 517.819 197.513 517.27 196.37C504.63 169.92 486.14 148.11 463.98 129.2C453.12 119.93 441.6 111.59 428.99 104.89C420.163 100.2 411.141 95.8579 402.127 91.52L402.125 91.5193C401.357 91.1495 400.588 90.7796 399.82 90.4096C397.839 89.4556 395.744 88.7343 393.585 87.9908L393.585 87.9908L393.582 87.9898C393.095 87.8219 392.604 87.6528 392.11 87.4796L396.14 79.3496C405.47 83.4296 414.79 87.5196 424.03 91.8096C428.36 93.8196 432.58 96.1096 436.7 98.5396L436.765 98.5776L436.765 98.5781C443.374 102.465 450.001 106.364 456.36 110.63C471.94 121.09 486.28 133.11 499.4 146.52C510.7 158.07 521.24 170.29 530.39 183.64C531.884 185.82 533.377 188.001 534.871 190.183L534.892 190.214L534.893 190.215C537.126 193.477 539.359 196.74 541.596 200H518.512ZM548.325 200H567.517C559.473 186.311 551.009 172.892 541.04 160.5C534.996 152.986 528.548 145.801 522.102 138.618C520.432 136.757 518.763 134.896 517.1 133.03C512.08 127.4 506.59 122.33 499.47 119.33C496.914 118.254 494.422 117.037 491.929 115.821L491.929 115.821C490.715 115.228 489.501 114.636 488.28 114.06C489.924 116.273 491.812 118.132 493.692 119.984C494.156 120.441 494.62 120.898 495.08 121.36C508.45 134.76 520.2 149.43 530.4 165.4C537.444 176.423 543.554 187.867 548.325 200Z" fill="#D9D9D9"/>
</svg>
