<svg width="596" height="842" viewBox="0 0 596 842" fill="none" xmlns="http://www.w3.org/2000/svg">
<g clip-path="url(#clip0_112_22)">
<mask id="mask0_112_22" style="mask-type:luminance" maskUnits="userSpaceOnUse" x="0" y="0" width="596" height="842">
<path d="M595.28 0H0V841.89H595.28V0Z" fill="white"/>
</mask>
<g mask="url(#mask0_112_22)">
<path d="M115.01 488.74C117.96 483.49 120.87 478.22 123.86 473C126.66 468.11 129.45 463.22 132.42 458.43C136.2 452.33 140.06 446.28 144.06 440.32C147.41 435.33 151.21 430.65 154.43 425.59C159.49 417.63 168.11 414.02 175.01 408.35C179.23 404.88 184.18 402.27 188.89 399.41C189.65 398.95 190.85 399.2 191.84 399.11C191.73 400.02 191.88 401.07 191.46 401.81C188.4 407.26 185.16 412.61 182.11 418.07C180.59 420.79 179.22 423.61 178.02 426.48C177.58 427.54 177.82 428.88 177.74 430.1C179.01 429.92 180.52 430.12 181.5 429.49C186.23 426.45 190.77 423.1 195.48 420.02C203.25 414.93 211.07 409.91 218.93 404.97C219.65 404.52 220.86 404.84 221.84 404.8C221.64 405.7 221.68 406.77 221.19 407.47C217.29 413.13 213.16 418.64 209.37 424.37C206.85 428.17 204.71 432.22 202.53 436.23C202.13 436.97 202.4 438.06 202.37 439C203.39 438.96 204.56 439.22 205.39 438.81C207.74 437.65 210.05 436.34 212.21 434.85C217.25 431.35 222.04 427.47 227.22 424.18C234.88 419.31 242.76 414.79 250.6 410.22C251.29 409.82 252.42 410.16 253.35 410.16C253.04 410.99 252.92 411.96 252.39 412.63C244.93 422.16 237.36 431.6 229.98 441.19C228.47 443.16 227.62 445.64 226.47 447.89C226.82 448.27 227.18 448.64 227.53 449.02C230.15 447.73 232.92 446.68 235.37 445.12C246.74 437.88 257.91 430.34 269.38 423.27C274.16 420.32 279.48 418.26 284.58 415.86C285.33 415.51 286.24 415.49 287.62 415.91C286.46 417.43 285.46 419.11 284.12 420.45C277.77 426.78 271.11 432.83 264.98 439.36C260.62 444.01 256.87 449.25 252.94 454.3C252.26 455.17 252.05 456.4 252.03 458.24C253.38 457.83 254.87 457.67 256.05 456.97C263.83 452.36 271.49 447.54 279.3 442.98C287.09 438.44 294.89 433.89 302.92 429.79C308.79 426.79 315.01 424.47 321.11 421.93C322.32 421.42 323.69 421.29 324.99 420.98C325.16 421.2 325.32 421.41 325.49 421.63C324.81 422.41 324.23 423.3 323.45 423.94C312.21 433.16 300.76 442.14 289.75 451.63C285.47 455.32 282.11 460.1 278.42 464.46C277.73 465.27 277.47 466.45 276.62 468.31C278.62 467.79 279.87 467.71 280.87 467.16C289.41 462.45 297.87 457.61 306.4 452.89C320.4 445.16 334.79 438.25 350.01 433.21C355.56 431.37 361.24 429.89 366.88 428.33C368.01 428.02 369.24 428.1 370.42 428.01C370.52 428.31 370.63 428.61 370.73 428.91C369.73 429.49 368.73 430.07 367.72 430.64C357.65 436.33 347.43 441.78 337.54 447.76C325.45 455.07 314.26 463.61 304.7 474.12C304.5 474.33 304.24 474.53 304.15 474.79C303.75 475.9 303.41 477.02 303.04 478.14C304.23 477.95 305.55 478.03 306.58 477.53C318.68 471.66 330.58 465.33 342.86 459.87C352.35 455.65 362.22 452.22 372.09 448.93C387.6 443.76 403.54 440.37 419.87 439.14C425.17 438.74 430.49 438.67 435.8 438.46C435.85 438.83 435.9 439.2 435.95 439.57C432.1 440.43 428.26 441.38 424.38 442.14C405.73 445.8 387.69 451.44 370.54 459.58C360 464.59 349.62 470.04 340.6 477.64C337.36 480.38 334.05 483.04 330.85 485.83C329.95 486.62 329.35 487.74 328.61 488.71C328.74 488.98 328.87 489.26 329 489.53C330.4 489.17 331.87 488.98 333.19 488.43C344.25 483.8 355.23 478.98 366.33 474.46C381.88 468.13 398.14 464.12 414.65 461.63C426.55 459.84 438.69 459.43 450.75 458.93C464.73 458.35 478.57 460.26 492.33 462.53C498.01 463.47 503.59 465.06 509.24 466.23C511.54 466.71 512 467.79 511.4 469.97C510.81 472.13 509.93 472.73 507.65 472.2C489.82 468.04 471.79 465.81 453.43 466.43C440.7 466.86 428.11 468.47 415.78 471.47C398.86 475.58 382.54 481.48 367.79 491.01C363.72 493.64 359.91 496.68 356 499.55C355.73 499.75 355.62 500.18 355.01 501.26C356.98 500.93 358.39 500.88 359.67 500.44C369.17 497.22 378.56 493.64 388.16 490.72C407.1 484.97 426.46 481.29 446.31 481.35C457.39 481.38 468.52 481.82 479.53 483.03C487.93 483.95 496.17 486.36 504.48 488.13C504.93 488.23 505.33 488.52 505.86 488.78C505.14 491.53 504.6 494.21 503.65 496.74C503.43 497.33 501.77 497.79 500.88 497.65C492.59 496.38 484.37 494.44 476.05 493.73C466.86 492.95 457.56 492.88 448.34 493.17C433.71 493.64 419.47 496.7 405.78 501.77C398.88 504.33 392.39 507.98 385.76 511.23C384.91 511.65 384.34 512.65 383.64 513.38L384.06 514.28C386.94 513.67 389.86 513.23 392.69 512.43C414.22 506.35 436.09 502.6 458.52 503.87C468.12 504.41 477.66 506.01 487.2 507.29C490.77 507.77 494.27 508.74 497.82 509.42C499.96 509.83 500.14 510.88 499.45 512.78C498.49 515.43 497.59 518.16 497.18 520.94C496.83 523.34 496.04 523.88 493.76 523.22C483.86 520.36 473.68 519.21 463.42 518.9C447.47 518.42 431.88 520.44 416.93 526.31C416.12 526.63 415.45 527.33 414.16 528.25C428.24 527.51 441.52 526.38 454.81 526.25C468.08 526.12 481.19 528.07 494.24 532.32C493.38 534.33 492.44 535.95 491.99 537.7C491.25 540.62 490.67 543.61 490.3 546.61C490.03 548.81 489.27 549.18 487.06 548.87C478.68 547.68 470.26 546.71 461.83 545.87C459.59 545.65 457.27 546.2 454.99 546.39C454.99 546.66 454.98 546.92 454.97 547.19C458.09 547.64 461.22 548 464.32 548.55C471.43 549.8 478.52 551.17 485.62 552.42C488.18 552.87 488.81 554.32 487.53 556.33C484.68 560.78 483.91 565.61 483.53 570.81C483.18 575.66 481.55 580.33 477.98 584.14C477 585.19 476.67 587.41 476.92 588.95C477.82 594.49 476.44 599.54 473.67 604.11C472.75 605.63 470.21 606.34 468.27 607.02C466.6 607.6 464.73 607.61 462.94 607.87L462.82 608.67C464.15 609.35 465.47 610.07 466.82 610.71C469.62 612.03 471.03 614.14 470.63 617.29C470.47 618.55 470.35 619.82 470.04 621.05C468.32 627.97 467.23 628.91 460.22 628.74C447.94 628.46 436.79 631.59 427.23 639.47C421.25 644.4 416.98 650.56 414.13 657.84C409.65 669.3 410.07 680.62 414.76 691.74C418.66 701 425.24 708.17 433.89 713.36C434.73 713.86 435.61 714.31 436.42 714.85C438.56 716.29 441.51 717.15 441.46 720.41C441.39 724.92 440.23 729.19 437 732.49C436.18 733.32 434.49 733.41 433.16 733.59C431.74 733.77 430.28 733.65 427.94 733.68C429.21 734.99 429.85 735.89 430.71 736.5C434.7 739.33 435.9 743.18 434.27 747.59C432.97 751.11 430.9 754.33 429.31 757.75C428.66 759.15 428.15 760.71 428.02 762.23C427.86 764.06 428.35 765.94 428.23 767.77C428.04 770.62 427.28 770.94 424.65 769.83C416.3 766.3 407.94 762.8 399.58 759.31C399.33 759.2 399.01 759.25 398.7 759.22C400.16 762.74 406.66 766.43 426.35 774.93C424.03 780.11 420.57 785.05 422.01 791.87C409.34 788.53 398.26 783.79 388.18 777.11C378.26 770.53 368.79 763.26 358.87 756.54C364.76 768.06 374.28 776.2 384.61 783.52C394.96 790.86 406.35 796.11 418.37 799.92C417.17 804.48 416.01 808.91 414.86 813.32C378.69 803.35 351.3 780.81 327.71 752.72C327.39 752.97 327.08 753.22 326.76 753.48C326.99 754.62 327.06 755.83 327.49 756.89C331.91 767.59 338.68 776.8 346.6 785.04C352.59 791.27 359.12 797.07 365.97 802.35C375.34 809.56 385.62 815.41 396.7 819.68C400.97 821.33 405.3 822.81 409.64 824.29C411.05 824.77 411.5 825.4 410.95 826.88C410.21 828.89 409.53 830.96 409.14 833.06C408.81 834.84 407.97 835.15 406.49 834.63C401.61 832.93 396.53 831.66 391.91 829.43C381.74 824.53 371.66 819.42 361.83 813.87C351.51 808.04 342.56 800.26 333.96 792.16C322.34 781.22 312.48 768.75 303.15 755.85C301.64 753.77 299.77 751.95 298.07 750.02C297.65 750.22 297.24 750.43 296.82 750.64C297.99 754.44 298.87 758.37 300.38 762.03C307.92 780.27 319.69 795.62 333.65 809.31C348.14 823.51 364.87 834.54 383.39 842.78C389.34 845.43 395.56 847.52 401.77 849.51C404.9 850.51 403.61 852.27 403.28 854.09C402.86 856.35 401.6 856.57 399.64 855.93C380.16 849.58 361.71 841.05 344.7 829.62C333.68 822.21 323.29 813.94 314.18 804.24C307.79 797.43 301.46 790.49 295.86 783.04C288.68 773.49 282.27 763.36 275.49 753.5C273.91 751.2 272.19 748.99 270.53 746.74C270.19 746.8 269.86 746.85 269.52 746.91C269.38 747.9 268.9 749 269.15 749.88C270.89 755.93 272.61 761.99 274.7 767.92C276.24 772.31 277.91 776.76 280.27 780.75C285.74 790.03 291.19 799.37 297.5 808.08C306.57 820.59 317.33 831.65 329.1 841.71C330.35 842.77 331.41 844.05 332.16 845.83C330.13 844.67 328.04 843.61 326.09 842.34C308.84 831.08 294.22 816.97 281.18 801.1C268.68 785.89 258.68 769.09 249.19 751.94C247.96 749.72 246.73 747.49 245.34 745.37C244.64 744.3 243.61 743.46 242.72 742.52C242.39 742.64 242.05 742.75 241.72 742.86C241.97 745.98 241.95 749.15 242.52 752.22C244.63 763.68 248.31 774.67 253.45 785.11C258.43 795.21 263.8 805.12 268.99 815.13C269.69 816.48 270.28 817.87 270.91 819.25C270.7 819.43 270.5 819.61 270.29 819.78C269.32 819.08 268.23 818.51 267.4 817.67C258.53 808.69 251.21 798.51 244.32 787.97C235.78 774.91 228.81 761.03 222.05 747.01C220.58 743.96 218.53 741.2 216.33 738.47C214.05 742 214.86 745.54 215.32 748.89C217.37 763.71 221.91 777.87 227.07 791.85C227.98 794.31 228.74 796.84 229.5 799.35C229.7 800.02 229.66 800.77 229.74 801.47C229.5 801.62 229.25 801.77 229.01 801.92C227.67 800.51 226.01 799.3 225.05 797.67C218.91 787.32 212.6 777.04 206.97 766.41C202.19 757.38 198.28 747.89 193.88 738.65C193.03 736.86 191.69 735.3 190.58 733.64L189.35 733.77C189.04 735.64 188.46 737.51 188.46 739.38C188.41 753 191.78 766.11 194.64 779.3C195.17 781.77 195.45 784.29 195.84 786.79C195.44 786.96 195.04 787.12 194.63 787.29C193.43 785.86 191.89 784.59 191.07 782.96C186.03 772.85 181.06 762.7 176.25 752.48C173.1 745.78 170.25 738.93 167.26 732.16C167.1 731.81 166.91 731.43 166.63 731.18C165.85 730.5 165.02 729.88 164.21 729.23C163.67 730.19 162.69 731.14 162.66 732.12C162.48 736.98 162.28 741.87 162.6 746.72C163.15 754.94 164.11 763.12 164.86 771.33C164.94 772.22 164.73 773.14 164.66 774.05C164.4 774.17 164.14 774.28 163.88 774.4C162.67 772.97 161.03 771.73 160.31 770.08C154.32 756.5 148.55 742.82 142.55 729.25C141.72 727.39 139.96 725.94 138.62 724.3C137.91 726.22 136.64 728.13 136.6 730.06C136.39 739.35 136.54 748.66 136.48 757.96C136.48 759.44 136.02 760.91 135.77 762.39C135.38 762.52 134.99 762.65 134.6 762.78C133.19 760.57 131.43 758.52 130.44 756.14C126.03 745.51 121.85 734.79 117.56 724.11C117.2 723.21 116.84 722.23 116.22 721.52C115.39 720.57 114.3 719.85 113.32 719.03C112.62 720.14 111.43 721.19 111.29 722.36C110.62 727.96 110.17 733.59 109.76 739.21C109.45 743.43 109.79 747.74 107.79 752.45C106.62 751.23 105.49 750.52 105.04 749.5C102.2 742.99 99.5099 736.41 96.7699 729.86C94.7399 725.01 92.3599 720.28 90.7799 715.29C89.8099 712.23 89.7899 708.79 89.7799 705.51C89.7399 694.02 89.5699 682.52 90.0699 671.05C90.5399 660.17 91.5099 649.29 92.7699 638.47C94.0199 627.74 95.4499 617 97.6299 606.43C100.3 593.5 103.47 580.66 107.09 567.96C109.97 557.85 113.55 547.92 117.34 538.11C120.84 529.05 124.82 520.15 129 511.37C133.9 501.08 139.07 490.92 144.43 480.86C148.96 472.36 153.95 464.1 158.72 455.73C159.19 454.9 159.54 454.01 159.48 452.65C158.42 453.48 157.12 454.12 156.33 455.16C149.94 463.49 143.5 471.8 137.34 480.3C128.24 492.86 120.97 506.53 114.48 520.55C109.66 530.97 105.32 541.67 101.62 552.54C97.3399 565.11 93.6499 577.91 90.3799 590.79C88.2299 599.26 86.8499 608 85.8799 616.7C84.3399 630.53 83.1899 644.42 82.3399 658.31C81.9199 665.26 82.2399 672.3 82.7599 679.26C83.5199 689.53 84.3699 699.83 85.9699 709.99C86.5799 713.88 85.7099 717.19 85.1599 720.77C84.2899 726.35 83.7999 731.98 82.9199 737.56C82.6899 739.03 81.5899 740.35 80.8799 741.75C79.8199 740.69 78.2999 739.81 77.7599 738.53C74.7499 731.35 71.6199 724.18 69.2599 716.78C68.1499 713.29 68.5399 709.28 68.4499 705.5C68.2499 697.35 68.1399 689.19 68.0499 681.04C67.9999 676.67 68.0499 672.31 68.0599 667.94C83.7299 608.23 99.3999 548.51 115.07 488.8M146.54 521.42C128.97 539.39 103.94 635.13 111.68 655.66C116.85 608.74 128.57 564.26 146.54 521.42Z" fill="#10B7C2"/>
<path d="M418.48 663.81C422.54 647.04 439.11 634.42 456.04 635.68C464.98 636.34 465.15 637.98 463.15 646.13C462.19 650.01 459.98 651.26 456.04 651.42C445.26 651.86 437.54 657.33 434.35 667.61C431.79 675.84 433.6 685.54 443.58 692.81C448.87 696.66 449.33 698.141 446.85 704.281C444.93 709.031 442.62 709.96 437.93 707.7C427.68 702.76 421.35 694.54 418.38 683.71C416.59 677.2 416.51 670.59 418.49 663.82" fill="#10B7C2"/>
<path d="M455.66 673.49C454.92 676.32 454.28 679.19 453.4 681.98C452.5 684.85 450.76 685.35 448.25 683.71C444.43 681.2 442.17 674.82 443.56 670.45C445.08 665.64 449.93 661.77 454.53 661.68C457.59 661.62 458.46 662.63 457.75 665.57C457.11 668.23 456.37 670.86 455.68 673.51C455.68 673.51 455.67 673.51 455.66 673.51" fill="#10B7C2"/>
<path d="M690.02 799.3C684.98 806.34 680.19 813.58 674.84 820.37C669.55 827.07 663.74 833.36 658.06 839.75C648.52 850.48 635.42 856.11 623.55 863.46C618.68 866.48 613.29 868.63 608.34 871.53C603.64 874.28 599.27 873.42 594.22 871.08C595.67 870.09 596.91 869.32 598.07 868.45C606.69 861.96 615.53 855.73 623.84 848.87C630.03 843.75 635.68 837.98 639.6 830.71C640.46 829.12 642.87 828.38 644.52 827.19C656.34 818.61 666.26 808.13 674.92 796.44C679.78 789.87 684.82 783.35 688.85 776.28C693.9 767.44 698.01 758.05 702.55 748.9C702.88 748.23 703.36 747.62 703.76 746.99C699.18 764.43 694.61 781.87 690.03 799.31" fill="#10B7C2"/>
<path d="M734.49 537.341C739.92 546.751 745.04 556.341 750.29 565.851C750.47 566.181 750.8 566.421 751.06 566.701C752.8 560.061 754.54 553.431 756.28 546.801C756.13 546.671 755.91 546.581 755.84 546.421C752.23 537.521 748.86 528.511 744.97 519.731C742.36 513.841 740.88 507.331 736.26 502.411C734.59 500.641 733.04 498.751 731.45 496.901C719.04 482.421 706.38 468.161 691.86 455.751C682.63 447.871 672.86 440.611 663.24 433.201C657.27 428.601 650.93 424.631 643.38 423.001C639.35 422.131 635.4 420.941 631.41 419.891C633.94 422.221 636.73 423.951 639.44 425.801C655.06 436.491 669.33 448.731 682.32 462.531C692 472.821 700.71 483.801 708 495.891C709.64 498.601 710.73 501.651 712.07 504.541C711.76 504.741 711.44 504.951 711.13 505.151C709.89 504.131 708.56 503.191 707.42 502.061C700.16 494.881 692.94 487.661 685.71 480.451C674.24 469.021 661.62 458.971 648.38 449.721C633 438.971 616.68 429.821 599.43 422.431C592.36 419.401 585.11 416.801 577.87 414.191C573.37 412.571 568.8 411.101 564.17 409.921C554.3 407.421 544.38 405.131 534.45 402.851L532 411.591C534.81 412.011 537.51 412.341 540.12 413.041C550.6 415.861 561.11 418.641 571.47 421.861C585.1 426.101 597.97 432.171 610.36 439.261C635.64 453.731 657.85 471.741 675.18 495.391C676.34 496.981 677.09 498.871 678.02 500.621C677.72 500.841 677.41 501.061 677.11 501.271C674.39 499.091 671.63 496.961 668.96 494.731C661.91 488.871 655.06 482.761 647.83 477.131C634.81 466.991 620.92 458.201 606.27 450.491C589.09 441.451 571.04 434.771 552.47 429.461C545.17 427.371 537.58 426.291 530.13 424.701C529.45 424.561 528.9 424.441 528.42 424.351L524.82 437.191C557.2 442.211 586.81 453.691 613.57 472.371C623.11 479.031 632.11 486.351 639.38 495.491C639.07 495.971 638.75 496.451 638.44 496.931C603.67 471.111 565.68 452.921 522.27 446.271L518.04 461.371C520.07 462.381 522.07 463.471 524.2 464.031C532.41 466.191 540.8 467.721 548.95 470.071C562.51 473.981 575.2 479.911 587.04 487.631C587.93 488.211 588.69 488.981 589.22 490.301C586.63 489.271 584.06 488.211 581.46 487.211C572.11 483.601 562.83 479.801 553.39 476.471C546.77 474.141 539.95 472.361 533.16 470.531C529.49 469.541 525.74 468.841 521.98 468.271C520.74 468.081 519.33 468.591 518.06 468.971C517.3 469.201 516.56 469.551 515.61 470.001L511.55 484.491C511.87 484.831 512.25 485.161 512.72 485.491C515.36 487.331 515.51 489.941 513.49 491.431C512.2 492.381 510.69 493.041 508.93 493.831L504.97 507.971C505.86 508.521 506.59 508.961 507.22 509.521C509.94 511.901 509.71 514.351 506.54 516.041C505.2 516.751 503.65 517.081 502.25 517.691L498.22 532.061C499.97 532.951 501.8 533.791 503.06 535.151C504.52 536.721 503.3 538.551 501.51 539.391C499.56 540.311 497.52 541.021 495.49 541.781L491.66 555.421C493.3 556.051 494.96 556.671 496.42 557.581C499.27 559.361 499.14 562.041 496.15 563.401C493.9 564.421 491.49 565.121 488.69 566.011L484.85 579.701C487.08 580.221 489.26 580.691 491.3 581.511C494.13 582.661 494.74 585.491 492.46 586.641C489.16 588.311 485.6 589.491 481.71 590.911L477.87 604.601C479.38 603.891 481.47 604.261 485.14 605.231C485.52 605.331 485.98 605.331 486.26 605.551C487.5 606.521 488.69 607.561 489.89 608.571C488.93 609.681 488.18 611.251 486.96 611.831C482.82 613.801 478.51 615.431 474.31 617.281L469.7 633.731C473.8 631.121 478.21 629.371 483.3 630.351C484.73 630.631 485.96 631.931 487.28 632.761C486.34 634.131 485.66 635.821 484.41 636.791C481.79 638.811 478.7 640.231 476.11 642.291C467.46 649.201 463.5 658.191 466.03 669.131C467.18 674.091 469.91 678.671 471.71 683.501C472.2 684.801 471.91 686.391 471.98 687.851C470.42 687.891 468.71 688.371 467.34 687.891C462.97 686.381 460.3 682.891 457.86 679.121C457.63 678.761 457.44 678.411 457.27 678.051L452.67 694.461C455.63 698.481 458.31 702.061 460.8 705.771C461.49 706.801 461.9 709.101 461.32 709.661C460.43 710.531 458.58 710.531 457.12 710.641C456.29 710.701 455.41 710.291 454.59 710.001C451.74 708.991 450.03 708.211 449.13 707.111L445.3 720.781C447.52 723.441 449.84 726.041 451.78 728.901C453.6 731.581 452.29 733.811 449.02 733.661C446.69 733.551 444.37 732.841 442.11 732.151L438.26 745.881C438.64 746.341 439.11 746.781 439.7 747.201C440.92 748.091 442.03 749.421 442.66 750.801C443.78 753.291 445.88 754.341 448.12 755.301C449.82 756.031 451.55 756.711 453.3 757.301C465.87 761.491 478.74 764.151 492 764.771C493.81 764.851 495.6 765.181 498.17 765.491C497.08 766.091 496.84 766.311 496.57 766.361C482.54 768.961 468.95 766.861 455.61 762.381C449.14 760.211 443.37 755.871 436.04 756.371C435.82 756.381 435.6 756.331 435.37 756.221L431.45 770.191C433.07 771.691 434.5 773.181 436.25 773.931C442.15 776.461 448.19 778.751 454.33 780.631C459.54 782.231 464.96 783.191 470.32 784.301C479.53 786.211 488.88 786.991 498.24 786.201C508.34 785.351 518.39 783.931 528.46 782.781C529.81 782.631 531.17 782.591 532.53 782.501C531.75 783.831 530.86 784.641 529.82 785.041C524.44 787.081 519.15 789.541 513.6 790.871C498.26 794.541 482.75 795.181 467.11 792.451C455.67 790.451 444.73 787.121 434.28 782.071C432.52 781.221 430.55 780.701 428.61 780.361L424.8 793.951C433.16 797.121 441.13 800.631 449.45 802.881C458.63 805.361 468.15 806.751 477.6 808.051C491.02 809.901 504.54 809.471 517.79 806.961C529.56 804.721 541.08 801.181 552.71 798.221C555.34 797.551 557.97 796.871 560.6 796.201C560.78 796.591 560.95 796.981 561.13 797.371C559.37 798.801 557.72 800.381 555.83 801.621C543.33 809.861 529.41 814.611 514.87 817.561C496.9 821.201 478.76 821.531 460.8 817.891C448.28 815.361 435.84 812.121 424.32 806.221C423.22 805.661 422.38 805.241 421.71 804.981L418.71 815.681C418.93 815.791 419.17 815.891 419.43 815.981C424.84 817.931 430.22 819.971 435.57 822.061C446.3 826.241 457.53 828.421 468.86 829.991C482.21 831.841 495.66 832.201 509.11 830.911C522.33 829.641 535.41 827.401 547.97 823.051C559.29 819.131 570.37 814.511 581.57 810.221C583.43 809.511 585.34 808.921 587.98 808.021C587.45 809.571 587.42 810.471 586.96 810.911C563.94 832.261 535.49 841.041 505.26 846.321C510.64 848.241 516.05 849.791 521.53 851.031C523.47 851.471 525.64 851.541 527.59 851.151C534.85 849.681 542.19 848.401 549.24 846.221C559.66 843.001 570.05 839.541 580.09 835.311C589.41 831.381 598.23 826.261 607.31 821.751C609.23 820.791 611.33 820.171 613.34 819.401C613.53 819.631 613.71 819.861 613.9 820.101C613.6 820.851 613.45 821.721 612.97 822.331C611.41 824.291 609.88 826.341 608.05 828.041C598.78 836.631 588.64 844.051 577.39 849.871C570.43 853.471 563.38 856.901 555.86 860.661C560.16 861.791 564.16 862.851 568.17 863.861C568.5 863.941 568.93 863.711 569.28 863.561C581.47 858.351 593.86 853.551 605.77 847.771C615.23 843.181 624.09 837.381 633.23 832.141C635.4 830.891 638.22 830.251 639.74 828.471C645.56 821.641 651.24 814.651 656.47 807.371C663.45 797.661 670.39 787.871 676.58 777.651C687.51 759.621 695.5 740.221 700.6 719.781C703.33 708.831 705.18 697.641 707 686.481C709.28 672.581 709.23 658.501 708.58 644.501C707.91 629.881 705.77 615.391 702.82 601.041C702.21 598.081 702.02 595.041 701.63 592.041C701.94 591.951 702.25 591.861 702.57 591.771C703.36 593.071 704.41 594.281 704.9 595.691C707.63 603.551 710.62 611.351 712.8 619.371C718.41 640.061 719.83 661.171 718.25 682.511C717.94 686.761 717.66 691.011 717.36 695.261C721.94 677.821 726.51 660.381 731.09 642.941C730.16 634.341 729.56 625.681 728.2 617.141C726.83 608.531 724.87 599.991 722.84 591.501C720.6 582.141 717.96 572.871 715.54 563.551C715.21 562.281 715.11 560.951 714.91 559.641C715.27 559.461 715.62 559.281 715.98 559.101C717.98 562.181 720.45 565.051 721.9 568.371C726.59 579.041 731 589.841 735.3 600.681C736.61 603.991 737.18 607.591 738.13 611.051C738.3 611.661 738.7 612.211 738.99 612.781C741.13 604.631 743.27 596.481 745.41 588.321C743.17 580.471 741.18 572.551 738.62 564.801C735.27 554.651 731.46 544.661 727.92 534.581C727.35 532.971 727.14 531.241 726.76 529.561C727.17 529.371 727.58 529.181 727.98 528.991C730.18 531.761 732.75 534.321 734.5 537.351M486.22 666.561C484.48 669.041 481.4 668.851 480.24 666.021C479.57 664.401 479.58 662.501 479.16 660.021C480.82 658.431 482.28 656.481 484.21 655.301C486.25 654.061 487.98 655.281 488.35 657.711C488.84 660.941 488.08 663.891 486.22 666.551M498.51 678.241C500.48 674.391 502.9 670.981 503.98 667.181C505.06 663.391 504.79 659.211 505.12 655.151C508.25 656.521 510.04 661.431 509.14 665.811C507.51 673.751 503.82 678.241 498.5 678.241M691.92 681.371C691.17 689.301 689.99 697.231 688.41 705.041C686.88 712.581 684.96 720.081 682.55 727.391C678.45 739.801 673.27 751.821 666.05 762.771C661.13 770.241 655.66 777.361 650.26 784.501C648.84 786.371 646.77 787.741 644.99 789.341C644.62 789.111 644.25 788.891 643.88 788.661C677.12 740.691 691.05 687.641 685.63 629.521C686.04 629.521 686.46 629.501 686.87 629.491C687.65 631.761 688.71 633.981 689.18 636.311C692.21 651.201 693.34 666.241 691.91 681.381" fill="#10B7C2"/>
</g>
</g>
<defs>
<clipPath id="clip0_112_22">
<rect width="595.28" height="841.89" fill="white"/>
</clipPath>
</defs>
</svg>
