<svg width="595" height="200" viewBox="0 0 595 200" fill="none" xmlns="http://www.w3.org/2000/svg">
<path fill-rule="evenodd" clip-rule="evenodd" d="M0 173.196V166.898C0.804243 166.598 1.66197 166.353 2.58004 166.17C2.50108 166.437 2.43042 166.692 2.36245 166.938C2.20663 167.501 2.065 168.013 1.87004 168.5C1.25266 170.068 0.627624 171.632 0 173.196ZM18.2703 200H2.04316C11.2415 183.424 20.9048 167.146 32.6402 152.16C35.2115 148.874 38.7483 147.471 42.3131 146.057C43.3372 145.65 44.3637 145.243 45.3702 144.79C45.2502 145.52 44.9602 146.01 44.6702 146.5C43.68 148.144 42.6736 149.779 41.6674 151.413L41.6671 151.413C39.3203 155.225 36.9749 159.034 34.8402 162.96C31.6002 168.93 28.5302 175.02 25.8302 181.25C23.1457 187.431 20.6622 193.696 18.2703 200ZM595 81.604V200H263.014C262.814 199.719 262.612 199.43 262.41 199.13C274.44 192.53 286.96 188.18 300.03 185.85C309.058 184.241 318.172 183.1 327.55 181.926L327.551 181.926L327.552 181.925L327.553 181.925C331.76 181.398 336.021 180.865 340.35 180.28C339.822 180.04 339.384 179.811 338.997 179.61L338.997 179.61C338.322 179.259 337.807 178.991 337.26 178.89C321.48 175.9 305.78 176.8 290.2 180.23C280.18 182.43 270.39 185.45 261.19 190.1C259.07 191.17 258.2 190.79 257.41 188.49C256.5 185.84 255.11 183.33 253.67 180.9C252.64 179.16 252.63 178.1 254.65 177.3C255.895 176.807 257.126 176.276 258.357 175.745C260.448 174.842 262.537 173.941 264.69 173.23C266.779 172.537 268.865 171.828 270.952 171.119C277.994 168.726 285.043 166.332 292.24 164.55C314.04 159.14 336.23 158.77 358.51 160.76C360.474 160.934 362.457 160.942 364.439 160.949C365.403 160.953 366.368 160.957 367.33 160.98L367.57 160.02C367.313 159.835 367.064 159.621 366.814 159.407L366.814 159.407C366.268 158.939 365.721 158.471 365.09 158.3C363.174 157.772 361.262 157.214 359.35 156.655C354.156 155.137 348.959 153.619 343.66 152.72C329.26 150.27 314.7 149.91 300.24 152.16C291.12 153.57 282 155.37 273.11 157.84C267.914 159.286 262.855 161.227 257.793 163.17L257.793 163.17L257.793 163.17L257.793 163.17L257.792 163.171L257.792 163.171L257.791 163.171L257.791 163.171L257.79 163.171C255.012 164.238 252.233 165.304 249.43 166.29C248.58 166.59 246.87 166.45 246.54 165.91C245.514 164.217 244.687 162.407 243.838 160.549L243.838 160.547C243.528 159.87 243.216 159.186 242.89 158.5C243.051 158.382 243.197 158.263 243.335 158.15C243.608 157.928 243.851 157.729 244.13 157.61C246.477 156.627 248.807 155.588 251.138 154.549L251.138 154.549C256.585 152.121 262.035 149.692 267.7 147.97C278.29 144.74 289.15 142.24 300.03 140.16C319.53 136.42 339.23 136.45 358.91 138.59C365.336 139.293 371.736 140.283 378.136 141.273L378.139 141.274C381.658 141.818 385.177 142.363 388.7 142.86C389.587 142.985 390.495 142.936 391.588 142.876L391.588 142.876C392.147 142.846 392.753 142.813 393.43 142.8C393.12 142.432 392.904 142.147 392.736 141.926L392.736 141.926C392.471 141.577 392.33 141.391 392.14 141.3C390.916 140.712 389.697 140.109 388.478 139.507L388.477 139.506C385.341 137.958 382.202 136.407 378.97 135.09C362.71 128.46 345.58 125.69 328.19 124.79C315.52 124.13 302.85 124.89 290.26 126.82C272.11 129.61 254.8 135.15 238.05 142.54C235.91 143.48 234.93 143.05 233.95 141.04C232.96 139 233.21 137.85 235.38 136.96C237.47 136.098 239.536 135.176 241.601 134.254L241.602 134.253C244.811 132.82 248.018 131.388 251.31 130.19C264.41 125.41 277.66 120.97 291.5 118.95C292.221 118.844 292.943 118.738 293.665 118.632L293.671 118.631L293.671 118.631C304.894 116.981 316.169 115.323 327.47 114.91C344.16 114.3 360.88 115.22 377.33 118.56C384.498 120.018 391.643 121.591 398.787 123.164L398.787 123.164C403.354 124.169 407.92 125.175 412.49 126.15C413.448 126.355 414.443 126.378 415.437 126.4C415.896 126.411 416.355 126.421 416.81 126.45C416.844 126.322 416.876 126.196 416.908 126.071C416.924 126.01 416.939 125.951 416.954 125.891L416.978 125.802C416.998 125.724 417.019 125.647 417.04 125.57C416.753 125.311 416.477 125.035 416.202 124.759C415.603 124.159 415.005 123.561 414.3 123.15C411.979 121.786 409.626 120.483 407.272 119.18C405.913 118.427 404.554 117.674 403.2 116.91C392.92 111.11 381.72 107.68 370.43 104.71C352.07 99.8796 333.3 97.6896 314.29 97.5496C311.612 97.5292 308.938 97.4216 306.263 97.3138L306.263 97.3138C304.992 97.2626 303.722 97.2114 302.45 97.1696L302.39 96.0596C304.035 95.8187 305.679 95.5632 307.322 95.3077L307.323 95.3075C310.933 94.7462 314.542 94.185 318.17 93.7796C334.45 91.9496 350.74 92.3296 366.94 94.5396C377.24 95.9396 387.58 97.4796 397.69 99.8696C406.284 101.9 414.788 104.327 423.292 106.755L423.292 106.755L423.292 106.755L423.292 106.755L423.293 106.755C427.731 108.022 432.169 109.289 436.62 110.5C437.372 110.703 438.202 110.617 439.032 110.531C439.427 110.49 439.823 110.449 440.21 110.44C440.021 110.098 439.836 109.755 439.65 109.412L439.647 109.405C439.273 108.714 438.9 108.023 438.5 107.35C438.397 107.18 438.207 107.054 438.022 106.931L437.977 106.901C437.953 106.885 437.929 106.87 437.906 106.854C437.88 106.836 437.855 106.818 437.83 106.8C426.48 98.2396 413.91 91.9196 400.67 86.9796C393.151 84.1748 385.527 81.6448 377.903 79.1152L377.9 79.1142C374.543 78.0004 371.187 76.8867 367.84 75.7496C367.208 75.5312 366.579 75.3094 365.951 75.0882L365.95 75.0876C365.486 74.9242 365.023 74.761 364.56 74.5996C364.575 74.5034 364.589 74.4082 364.603 74.3133C364.612 74.251 364.621 74.1888 364.63 74.1266L364.63 74.1261L364.63 74.1256V74.1254C364.639 74.0578 364.649 73.9901 364.659 73.9223C364.668 73.8609 364.677 73.7993 364.686 73.7375L364.7 73.6496C365.059 73.61 365.421 73.5537 365.782 73.4974C366.607 73.3688 367.433 73.2401 368.24 73.3096C369.363 73.404 370.487 73.495 371.611 73.5861L371.611 73.5862C376.322 73.9678 381.037 74.3499 385.72 74.9796C401.6 77.1196 417.03 81.2296 432.22 86.2396C436.996 87.8075 441.761 89.4154 446.527 91.0234L446.53 91.0242C451.003 92.5335 455.477 94.043 459.96 95.5196C460.667 95.7489 461.448 95.7679 462.481 95.7931C463.025 95.8063 463.639 95.8213 464.35 95.8696C463.933 95.276 463.605 94.7548 463.318 94.2995C462.793 93.466 462.407 92.8529 461.87 92.4196C460.672 91.446 459.491 90.4372 458.31 89.4276C455.122 86.7041 451.927 83.9742 448.36 81.9096C439.719 76.9088 430.921 72.177 422.124 67.4452L422.118 67.4417L422.116 67.4406L422.115 67.4401L422.114 67.4396C418.108 65.2848 414.101 63.1299 410.11 60.9496C409.507 60.6177 408.978 60.1574 408.447 59.696L408.447 59.6958L408.446 59.6951C408.194 59.4755 407.941 59.2558 407.68 59.0496C407.739 58.9305 407.801 58.809 407.863 58.6875L407.864 58.6857C407.927 58.5629 407.99 58.44 408.05 58.3196C408.47 58.3385 408.894 58.3395 409.318 58.3405C410.237 58.3427 411.157 58.3449 412.04 58.5296C413.682 58.8779 415.33 59.2101 416.979 59.5423L416.98 59.5425C421.816 60.5171 426.657 61.4926 431.37 62.8796C440.01 65.4196 448.52 68.4396 457.02 71.4596C461.769 73.1486 466.488 74.9278 471.206 76.707L471.208 76.7076C474.953 78.1199 478.699 79.5323 482.46 80.8996C483.339 81.2155 484.322 81.2626 485.305 81.3097C485.753 81.3311 486.201 81.3526 486.64 81.3996C486.27 79.5996 485.84 78.4296 485.01 77.6996C483.895 76.7148 482.788 75.7187 481.682 74.7226L481.681 74.7223L481.681 74.7221L481.681 74.7218L481.68 74.7216L481.68 74.7214C478.022 71.4289 474.363 68.136 470.41 65.2496C465.798 61.8797 461.015 58.7452 456.233 55.6108L456.233 55.6106L456.23 55.6091L456.23 55.6086L456.229 55.6083C453.506 53.8232 450.782 52.0381 448.09 50.2096C447.023 49.4775 446.077 48.5628 445.131 47.6481C444.695 47.226 444.258 46.8038 443.81 46.3996C445.09 45.7296 445.99 45.5796 446.79 45.7896C448.33 46.1901 449.882 46.5604 451.434 46.9307C455.385 47.8734 459.338 48.8165 463.1 50.2596C470.682 53.1648 478.192 56.2626 485.702 59.3603L485.704 59.361L485.704 59.3613C490.653 61.4025 495.601 63.4436 500.57 65.4296C502.41 66.1656 504.352 66.6415 506.292 67.1169C507.199 67.3391 508.105 67.5611 509 67.8096L509.83 66.5096C509.338 65.8781 508.872 65.2165 508.407 64.5547L508.406 64.5538L508.405 64.5523L508.404 64.5502C507.403 63.1278 506.402 61.7049 505.14 60.5796C499.499 55.5455 493.788 50.5778 488.077 45.6106L488.077 45.6103L488.077 45.61L488.076 45.6097L488.076 45.6094C484.655 42.634 481.235 39.6588 477.83 36.6696C477.403 36.2901 477.128 35.7407 476.851 35.1894C476.72 34.9272 476.588 34.6646 476.44 34.4196C476.728 34.3657 477.029 34.2738 477.33 34.1819C477.98 33.9835 478.631 33.785 479.15 33.9696C480.179 34.3341 481.208 34.6979 482.237 35.0618C489.762 37.7223 497.294 40.385 504.71 43.3496C508.154 44.7238 511.504 46.3398 514.853 47.9559C517.036 49.0094 519.22 50.063 521.43 51.0496C523.83 52.1196 526.34 52.9696 528.87 53.6796C529.49 53.8517 530.204 53.6777 530.919 53.5037C531.242 53.425 531.565 53.3463 531.88 53.2996C531.814 53.0139 531.775 52.7064 531.735 52.399C531.649 51.7273 531.564 51.0555 531.2 50.6096L531.003 50.3678L530.473 49.7156C527.837 46.4695 525.193 43.2145 522.28 40.2196C519.458 37.3207 516.535 34.5155 513.611 31.71L513.611 31.7097L513.611 31.7094L513.61 31.7088L513.608 31.7068C511.571 29.7519 509.534 27.7968 507.53 25.8096C507.116 25.3954 506.914 24.7783 506.711 24.1588C506.615 23.8659 506.519 23.5724 506.4 23.2996C506.71 23.2548 507.037 23.169 507.364 23.0833C508.058 22.901 508.753 22.7188 509.29 22.9296C517.93 26.3296 526.54 29.7996 535.12 33.3696C537.517 34.3652 539.886 35.4225 542.255 36.4797C545.026 37.716 547.796 38.9522 550.61 40.0896C551.352 40.3917 552.268 40.2601 553.183 40.1285C553.601 40.0684 554.019 40.0084 554.42 39.9896C554.331 39.6275 554.267 39.2486 554.204 38.8694L554.204 38.8681C554.06 38.0118 553.916 37.1547 553.48 36.4896C551.77 33.8896 549.91 31.3796 547.91 28.9896C545.867 26.5507 543.786 24.1479 541.705 21.7458L541.701 21.7414L541.699 21.7388L541.698 21.7372L541.697 21.736C539.685 19.4139 537.675 17.0924 535.7 14.7396C535.332 14.2969 535.192 13.6641 535.051 13.0306C534.985 12.7339 534.919 12.4371 534.83 12.1596C535.139 12.1252 535.461 12.0569 535.784 11.9884C536.496 11.8375 537.209 11.6863 537.78 11.8996C539.004 12.3608 540.24 12.8051 541.477 13.2497L541.479 13.2507C545.444 14.676 549.42 16.1053 553.07 18.1096C555.604 19.4995 558.273 20.6429 560.943 21.7865C566.532 24.1809 572.125 26.5767 576.49 31.2396C578.779 33.6786 581.222 35.9688 583.666 38.2586L583.668 38.2603C585.611 40.082 587.555 41.9035 589.42 43.7996C591.295 45.7079 593.154 47.6315 595 49.5678V73.8885C590.974 70.2221 586.911 66.5935 582.849 62.9651L582.848 62.9642L582.846 62.9625L582.818 62.9374L582.789 62.9121C581.923 62.1381 581.056 61.364 580.19 60.5896C579.531 59.9985 578.678 59.629 577.823 59.2584L577.822 59.258C577.418 59.0833 577.014 58.9082 576.63 58.7096C576.83 60.0496 577.33 60.8596 577.95 61.5896C579.989 63.9908 582.047 66.375 584.106 68.7588C587.777 73.01 591.447 77.2601 595 81.604ZM595 18.7395V36.8586C591.154 33.7418 587.28 30.6647 583.29 27.7399C578.45 24.1899 574.04 20.4799 570.78 15.3599M595 18.7395L594.91 18.5499L594.92 18.5399M257.912 200H79.0909C80.6483 198.205 82.2051 196.408 83.72 194.58C85.6993 192.184 87.651 189.764 89.6024 187.346L89.6033 187.345L89.6034 187.344C93.4094 182.627 97.2142 177.911 101.22 173.37C112.14 160.99 124.16 149.77 137.12 139.49C152.33 127.42 168.82 117.52 186.09 108.85C190.614 106.578 195.342 104.728 200.073 102.876L200.073 102.876C202.443 101.949 204.814 101.021 207.16 100.04L207.215 100.016L207.215 100.016C207.83 99.7569 208.333 99.5447 208.77 99.3796L214.69 111.33C183.8 122.27 156.84 139.03 134 162.35C125.86 170.66 118.37 179.52 112.92 189.85L112.978 189.91C113.357 190.309 113.729 190.699 114.11 191.09C143.49 159.27 177.45 134.35 218.88 119.77L225.84 133.82C225.587 134.011 225.335 134.204 225.083 134.397C223.533 135.583 221.992 136.763 220.28 137.58C216.936 139.171 213.54 140.65 210.143 142.129L210.143 142.129L210.143 142.129C205.749 144.042 201.355 145.955 197.08 148.11C184.48 154.46 173.11 162.65 162.91 172.42C162.15 173.15 161.54 174.05 161.26 175.45C162.123 174.903 162.984 174.352 163.845 173.801L163.846 173.8C165.331 172.85 166.817 171.9 168.31 170.97C170.724 169.472 173.13 167.96 175.538 166.447L175.54 166.446L175.541 166.445C181.619 162.626 187.7 158.805 193.91 155.21C199.367 152.045 205.075 149.293 210.771 146.546C211.411 146.237 212.051 145.929 212.69 145.62C216.11 143.97 219.67 142.58 223.25 141.32C224.301 140.949 225.571 141.093 226.762 141.228C226.869 141.24 226.974 141.252 227.079 141.263C227.13 141.269 227.18 141.274 227.23 141.28C228.02 141.37 228.81 141.57 229.83 141.84L236.51 155.33C236.26 155.72 235.94 156.12 235.54 156.53C233.29 158.83 233.62 161.42 235.88 162.51C237.201 163.152 238.665 163.508 240.349 163.917L240.35 163.917L240.369 163.922C240.514 163.958 240.661 163.993 240.81 164.03L247.32 177.18L247.298 177.2C246.538 177.891 245.905 178.466 245.39 179.12C243.16 181.96 243.84 184.33 247.27 185.4C248.108 185.66 248.992 185.783 249.877 185.906L249.877 185.906H249.877C250.524 185.996 251.171 186.086 251.8 186.23L258.42 199.61C258.254 199.738 258.087 199.866 257.92 199.995C257.917 199.996 257.915 199.998 257.912 200ZM76.4875 200C76.8278 198.753 77.1808 197.513 77.73 196.37C90.37 169.92 108.86 148.11 131.02 129.2C141.88 119.93 153.4 111.59 166.01 104.89C174.837 100.2 183.859 95.8579 192.873 91.52L192.875 91.5193L192.884 91.5147C193.65 91.1464 194.415 90.7781 195.18 90.4096C197.161 89.4556 199.256 88.7343 201.415 87.9908L201.415 87.9908L201.418 87.9898C201.905 87.8219 202.396 87.6528 202.89 87.4796L198.86 79.3496C189.53 83.4296 180.21 87.5196 170.97 91.8096C166.64 93.8196 162.42 96.1096 158.3 98.5396L158.235 98.5776L158.235 98.5781C151.626 102.465 144.999 106.364 138.64 110.63C123.06 121.09 108.72 133.11 95.6 146.52C84.3 158.07 73.76 170.29 64.61 183.64C63.116 185.82 61.6226 188.001 60.129 190.183L60.1081 190.214L60.1072 190.215C57.8742 193.477 55.6407 196.74 53.4038 200H76.4875ZM46.6747 200H27.4825C35.5272 186.311 43.9911 172.892 53.96 160.5C60.0042 152.986 66.4521 145.801 72.8979 138.618C74.5678 136.757 76.2375 134.896 77.9 133.03C82.92 127.4 88.41 122.33 95.53 119.33C98.0858 118.254 100.578 117.037 103.071 115.821L103.071 115.821L103.073 115.82C104.286 115.228 105.499 114.636 106.72 114.06C105.076 116.273 103.188 118.132 101.308 119.984C100.844 120.441 100.38 120.898 99.92 121.36C86.55 134.76 74.8 149.43 64.6 165.4C57.5563 176.423 51.4464 187.867 46.6747 200ZM591.011 15.2769L591.011 15.2766ZM591.011 15.2766C588.088 12.7753 585.167 10.2752 581.88 8.4099ZM581.88 8.4099C577.768 6.0819 573.291 4.39949 568.819 2.71923ZM568.819 2.71923L568.816 2.71809ZM568.816 2.71809L568.815 2.71789ZM568.815 2.71789C567.372 2.17558 565.93 1.63347 564.5 1.06993ZM564.5 1.06993C563.98 0.86452 563.323 1.00604 562.666 1.14779ZM562.666 1.14779C562.363 1.21307 562.06 1.27839 561.77 1.30992ZM561.77 1.30992C561.837 1.59472 561.879 1.89794 561.92 2.20125ZM561.92 2.20125L561.921 2.203ZM561.921 2.203C562.009 2.84712 562.097 3.49122 562.43 3.95995ZM562.43 3.95995C563.5 5.46499 564.627 6.93162 565.754 8.39884Z" fill="#D9D9D9"/>
</svg>
